<?xml version="1.0" encoding="utf-8"?>
<!-- Generator: Adobe Illustrator 18.0.0, SVG Export Plug-In . SVG Version: 6.00 Build 0)  -->
<!DOCTYPE svg PUBLIC "-//W3C//DTD SVG 1.1//EN" "http://www.w3.org/Graphics/SVG/1.1/DTD/svg11.dtd">
<svg version="1.1" id="Camada_1" xmlns="http://www.w3.org/2000/svg" xmlns:xlink="http://www.w3.org/1999/xlink" x="0px" y="0px"
	 viewBox="0 0 190 20" enable-background="new 0 0 190 20" xml:space="preserve">
<g>
	<path fill="#010101" d="M190.1,12.3c-0.2-1.1-0.9-2-2.1-2.7c-1-0.5-2.1-0.9-3.4-1c-0.9-0.1-1.7-0.2-2.6-0.2h-0.6
		c-0.8-0.1-1.4-0.1-2.2-0.2c-0.9-0.1-1.8-0.2-2.7-0.2C176,8,175.3,8,174.7,7.6c-0.4-0.2-0.6-0.4-0.6-0.7c0-0.2,0.1-0.4,0.6-0.6
		c0.4-0.2,0.8-0.4,1.2-0.5c1.2-0.3,2.5-0.4,4-0.4c1,0,2,0.1,3.3,0.2c1.3,0.1,2.8,0.5,4.5,1c0.4,0.1,0.7,0.3,1,0.4l0.9,0.3v-1
		c0-0.6,0-1,0-1.6c0-0.3-0.1-0.5-0.4-0.7c-2.2-1-4.6-1.6-7.7-1.7c-0.4,0-0.8,0-1.2,0c-0.4,0-0.8,0-1.1,0H179c-1.6,0-3,0.2-4.4,0.6
		c-1.2,0.3-2.3,0.8-3.1,1.4c-0.8,0.6-1.2,1.4-1.2,2.5c-0.1,1,0.3,2,1,2.7c0.7,0.6,1.4,1,2.5,1.3c1.1,0.4,2.3,0.5,3.3,0.6
		c1.7,0.1,3.6,0.3,5.5,0.5c0.9,0.1,1.7,0.2,2.5,0.3c0.5,0.1,0.8,0.3,1,0.6c0.1,0.1,0.2,0.2,0.2,0.4c0,0.1-0.1,0.2-0.2,0.3
		c-0.2,0.1-0.4,0.3-0.6,0.4c-0.9,0.4-1.8,0.6-2.7,0.7c-1.3,0.2-2.8,0.2-4,0.1h-0.3c-0.9-0.1-1.8-0.1-2.7-0.2
		c-1.7-0.2-3.4-0.8-5.4-1.6c-0.1,0-0.1-0.1-0.2-0.1l-0.5-0.2v1.8c0,1.2,0.1,1.3,1.2,1.9c1.8,0.9,3.7,1.1,5.5,1.3
		c1,0.1,2.1,0.2,3.3,0.2c0.4,0,0.8,0,1.1,0c1.3,0,2.9-0.1,4.6-0.6c1-0.2,2.2-0.6,3.2-1.4C189.9,14.7,190.4,13.6,190.1,12.3z"/>
	<path fill="#010101" d="M160.9,12.6c1.2-1,2-2.4,2.1-3.9c0.1-1.4-0.4-2.8-1.4-3.9c-1-1.2-2.4-2-4-2.3h-15.2v14.8h3.7v-2.9h2.9
		c1.6,0,3.2,0,4.8,0c0.1,0,0.2,0.1,0.3,0.1c0.7,0.6,1.3,1.1,2.1,1.7c0.5,0.4,0.9,0.8,1.3,1h5.5l-4.4-3.4
		C159.6,13.6,160.3,13.2,160.9,12.6z M158,10.3c-0.8,0.6-1.5,0.9-2.5,0.9c-1.4,0-2.9,0-4.2,0h-5.2V5.7h5.3c1.4,0,2.8,0,4.2,0
		c1,0,1.9,0.3,2.7,1c0.6,0.5,0.9,1.1,0.9,1.8C159,9.2,158.6,9.8,158,10.3z"/>
	<polygon fill="#010101" points="120.8,14.2 120.8,11.6 130.8,11.6 130.8,8.1 120.8,8.1 120.8,5.7 135.5,5.7 135.5,2.6 117.3,2.6 
		117.3,17.4 135.5,17.4 135.5,14.2 	"/>
	<path fill="#010101" d="M111.7,2.9l0.2-0.1V2.6h-6.2c-3,1.7-6,3.3-9,5l-2.2,1.2V2.6h-3.7v14.8h3.7v-1.2c0-1,0-2,0-2.9
		c0,0,0,0,0-0.1c1.3-0.8,2.6-1.5,3.9-2.3c2.7,2.2,5.3,4.4,8,6.6h5.2l-9.9-8.5L111.7,2.9z"/>
	<path fill="#010101" d="M46.8,17L46,15.7c-0.6-1-1.1-2.1-1.8-3.1c-0.9-1.5-1.7-3-2.7-4.6c-1-1.8-2.1-3.6-3.1-5.4l0,0h-3.8
		c-0.1,0.1-0.2,0.3-0.2,0.4c0,0.1-0.1,0.1-0.1,0.2l-8.1,13.8c0,0.1-0.1,0.1-0.1,0.2l-0.1,0.3h4.4c0,0,0-0.1,0.1-0.1
		c0.3-0.5,0.6-1,0.9-1.5c0.3-0.5,0.5-1,0.8-1.4c0,0,0,0,0.1,0h3.3c1.7,0,3.5,0,5.2,0h0.1c0.5,1,1,1.9,1.6,2.9c0,0,0,0.1,0.1,0.1H47
		L46.8,17C46.9,17.1,46.9,17,46.8,17z M34.2,11l2.5-4.2l2.4,4.2H34.2z"/>
	<path fill="#010101" d="M16,2.6v1.6c0,1.3,0,2.6,0,3.9l0,0l0,0l0,0c-2.6,0-5.1,0-7.7,0H3.7V2.6H0v14.8h3.7v-5.5H16v5.5h3.7V2.6H16z
		"/>
	<path fill="#010101" d="M65.7,2.6h0.9h1.6c0,0,0,0,0,0.1c1.4,2.5,2.9,4.8,4.2,7.3l2.1,3.5l0.6-1c1.9-3.3,3.8-6.6,5.7-9.9
		c0,0,0-0.1,0.1-0.1h4.3L85,2.8c0,0.1-0.1,0.1-0.1,0.2L83,6.3c-1.5,2.7-3.1,5.3-4.7,8.1c-0.4,0.8-0.8,1.5-1.1,2.3l-0.4,0.8l-0.1,0.1
		h-0.6l0,0l0,0l0,0h-3.8l0,0c-0.5-0.8-1-1.6-1.4-2.4c-0.7-1.1-1.3-2.2-1.9-3.3c-0.5-0.9-1-1.7-1.4-2.6l-0.6-1
		c-0.3,0.5-0.6,1-0.9,1.5c-0.9,1.5-1.7,3-2.6,4.6c-0.5,0.8-0.9,1.6-1.2,2.5c-0.1,0.3-0.3,0.6-0.4,0.9v0.1h-4.4l0,0
		c-2.2-3.8-4.4-7.6-6.6-11.4l-1.7-3c0,0-0.1-0.1-0.1-0.2l-0.1-0.2h4.3c0,0,0,0.1,0.1,0.1c1.9,3.2,3.8,6.6,5.7,9.8l0.6,1l3.4-5.9
		c0.7-1.1,1.3-2.3,1.9-3.4L65.7,2.6z"/>
</g>
</svg>
