<?xml version="1.0" encoding="UTF-8" standalone="no"?>
<svg width="20px" height="16px" viewBox="0 0 20 16" version="1.1" xmlns="http://www.w3.org/2000/svg" xmlns:xlink="http://www.w3.org/1999/xlink">
    <!-- Generator: Sketch 40 (33762) - http://www.bohemiancoding.com/sketch -->
    <title>Shape</title>
    <desc>Created with Sketch.</desc>
    <defs></defs>
    <g id="Page-1" stroke="none" stroke-width="1" fill="none" fill-rule="evenodd">
        <g id="home" transform="translate(-584.000000, -2853.000000)" fill="#000000">
            <g id="noun_737316_cc-copy" transform="translate(594.000000, 2861.000000) rotate(-360.000000) translate(-594.000000, -2861.000000) translate(584.000000, 2853.000000)">
                <g id="Group">
                    <path d="M11.85,0.6 C11.85,0.65 11.85,0.75 11.9,0.8 L18.9,7.8 L0.4,7.8 C0.25,7.8 0.15,7.9 0.15,8.05 C0.15,8.2 0.25,8.3 0.4,8.3 L18.9,8.3 L11.9,15.3 C11.85,15.35 11.85,15.4 11.85,15.5 C11.85,15.6 11.85,15.65 11.9,15.7 C12,15.8 12.15,15.8 12.25,15.7 L19.65,8.3 C19.75,8.2 19.75,8.05 19.65,7.95 L12.3,0.4 C12.2,0.3 12.05,0.3 11.95,0.4 C11.9,0.45 11.85,0.5 11.85,0.6 L11.85,0.6 Z" id="Shape"></path>
                </g>
            </g>
        </g>
    </g>
</svg>