<?xml version="1.0" standalone="no"?>
<!DOCTYPE svg PUBLIC "-//W3C//DTD SVG 1.1//EN" "http://www.w3.org/Graphics/SVG/1.1/DTD/svg11.dtd" >
<svg xmlns="http://www.w3.org/2000/svg" xmlns:xlink="http://www.w3.org/1999/xlink" version="1.1">
<metadata></metadata>
<defs>
<font id="cormorantmedium" horiz-adv-x="1445" >
<font-face units-per-em="2048" ascent="1638" descent="-410" />
<missing-glyph horiz-adv-x="479" />
<glyph horiz-adv-x="0" />
<glyph horiz-adv-x="682" />
<glyph unicode=" "  horiz-adv-x="479" />
<glyph unicode="&#x09;" horiz-adv-x="479" />
<glyph unicode="&#xa0;" horiz-adv-x="479" />
<glyph unicode="!" horiz-adv-x="516" d="M147 78q0 45 27 70.5t74 25.5t72.5 -25.5t25.5 -70.5q0 -47 -25.5 -74t-72.5 -27q-45 0 -73 28t-28 73zM147 1266q-2 10 34 16t77 6t77 -6t34 -16q-39 -174 -58.5 -383t-34.5 -496q0 -2 -6 -5t-14 -3t-15.5 2t-7.5 6q0 18 -4 59q-12 264 -29.5 460t-52.5 360z" />
<glyph unicode="&#x22;" horiz-adv-x="591" d="M78 1245q-2 23 55 44.5t98 21.5q27 0 25 -11l-115 -550q-4 -4 -15 -6.5t-11 4.5zM375 1245q-2 23 55 44.5t98 21.5q27 0 25 -11l-115 -550q-4 -4 -15 -6.5t-11 4.5z" />
<glyph unicode="#" horiz-adv-x="1077" d="M119 201q0 14 3 27.5t5 13.5h152l57 321h-135q-4 0 -7.5 14.5t-3.5 30.5q0 14 2.5 26.5t6.5 12.5h151l62 340q0 10 42 1t40 -17l-58 -324h299l60 340q0 10 42 1t40 -17l-58 -324h129q4 0 7 -13t3 -28q0 -16 -3 -29.5t-7 -13.5h-143l-57 -321h129q4 0 7 -13.5t3 -29.5 t-3 -29.5t-7 -13.5h-144l-57 -320q0 -6 -19 -6q-20 0 -42.5 5t-20.5 11l55 310h-299l-57 -320q0 -6 -19 -6q-20 0 -43.5 5t-21.5 11l55 310h-135q-4 0 -7 14t-3 31zM365 242h299l57 321h-299z" />
<glyph unicode="$" horiz-adv-x="847" d="M115 301q-2 8 9 10t15 -6q37 -109 111 -190.5t166 -98.5v418q-12 8 -37 21q-121 63 -183.5 121.5t-62.5 154.5q0 109 81 174.5t202 75.5v168q0 8 7 12t17 4t17.5 -4t7.5 -12v-166q115 -4 211 -47q18 -8 23.5 -15.5t7.5 -21.5l10 -182q0 -8 -10.5 -10t-14.5 4 q-16 66 -77.5 139.5t-149.5 91.5v-379l41 -20q84 -43 136 -78t88 -87t36 -122q0 -109 -82 -186.5t-219 -92.5v-186q0 -14 -25 -14t-24 14v184h-2q-78 0 -148.5 19.5t-115.5 52.5q-14 10 -19 41zM260 795q0 -68 41 -116t115 -89v356q-76 -2 -116 -44t-40 -107zM465 12 q67 4 115.5 45t48.5 123q0 74 -43 127t-121 101v-396z" />
<glyph unicode="%" horiz-adv-x="1175" d="M49 887q0 109 74 184.5t184 75.5q111 0 181.5 -77t70.5 -189q0 -111 -71.5 -185.5t-180.5 -74.5q-110 0 -184 76.5t-74 189.5zM168 18l758 1115l4 2q10 0 31.5 -15.5t17.5 -19.5l-760 -1112l-4 -2q-10 0 -30.5 13t-16.5 19zM184 893q0 -246 138 -246q61 0 81.5 55.5 t20.5 163.5q0 254 -129 254q-66 0 -88.5 -59.5t-22.5 -167.5zM616 256q0 109 74 185.5t184 76.5q111 0 181.5 -78t70.5 -188q0 -113 -70.5 -187.5t-181.5 -74.5q-110 0 -184 76.5t-74 189.5zM752 264q0 -115 30.5 -180.5t106.5 -65.5q61 0 81.5 54.5t20.5 165.5 q0 252 -129 251q-63 0 -86.5 -59t-23.5 -166z" />
<glyph unicode="&#x26;" horiz-adv-x="1439" d="M131 276q0 113 71.5 197t209.5 182q-35 49 -62 103q-59 125 -59 223q0 94 44 172t125 124t187 46q109 0 180.5 -49t71.5 -154q0 -78 -40 -141.5t-97 -110.5t-160 -116l-41 -27q143 -225 430 -449q53 106 53 242q0 88 -31.5 130t-119.5 42q-6 0 -7 12.5t7 12.5l446 2 q8 0 8.5 -12.5t-8.5 -12.5q-68 0 -100.5 -13t-46.5 -39t-31 -81q-57 -195 -133 -311q127 -92 235.5 -149.5t182.5 -73.5q8 -2 7 -13.5t-7 -11.5h-258q-80 0 -254 131q-162 -156 -406 -156q-131 0 -220 42t-133 111t-44 148zM287 362q0 -84 45 -155.5t125 -114.5t184 -43 q155 1 264 105l-53 43q-119 92 -230.5 205.5t-191.5 226.5q-68 -59 -105.5 -124t-37.5 -143zM432 1096q0 -160 111 -342q96 78 150.5 155.5t54.5 173.5q0 90 -47.5 141.5t-122.5 51.5q-145 0 -146 -180z" />
<glyph unicode="'" horiz-adv-x="292" d="M78 1245q-2 23 55 44.5t98 21.5q27 0 25 -11l-115 -550q-4 -4 -15 -6.5t-11 4.5z" />
<glyph unicode="(" horiz-adv-x="632" d="M119 623q0 290 116.5 521.5t325.5 340.5q4 2 8 -3t0 -9q-145 -145 -212.5 -356.5t-67.5 -493.5q0 -283 67.5 -494t212.5 -356q4 -2 0 -8.5t-8 -4.5q-209 111 -325.5 341.5t-116.5 521.5z" />
<glyph unicode=")" horiz-adv-x="632" d="M63 -227q145 145 213 356t68 494t-67.5 493.5t-213.5 356.5q-4 2 0.5 8t8.5 4q209 -111 325.5 -341.5t116.5 -520.5q0 -291 -116.5 -522.5t-325.5 -340.5q-4 -2 -8.5 3.5t-0.5 9.5z" />
<glyph unicode="*" horiz-adv-x="917" d="M113 834l309 172l4 2q4 0 9 -6.5t3 -8.5l-143 -221q-7 -8 -23 -8q-25 0 -66.5 15.5t-71.5 32.5t-21 22zM141 1192q0 45 7.5 84t15.5 31l260 -242q4 -2 1 -11.5t-7 -6.5l-256 67q-20 6 -21 78zM449 1346q-2 23 61 43t104 20q20 0 17 -6l-148 -320q-2 -6 -11 -6t-9 6z M477 985v2q0 4 7.5 10.5t9.5 1.5l165 -204q12 -14 -14.5 -56.5t-62 -77t-37.5 -22.5zM507 1039.5q-3 9.5 1 11.5l246 96q18 6 50 -33t53.5 -82t8.5 -43l-352 41q-4 0 -7 9.5z" />
<glyph unicode="+" horiz-adv-x="815" d="M59 391q0 14 3.5 27.5t5.5 13.5h294v293q0 4 14.5 7t31.5 3q16 0 29.5 -3t13.5 -7v-293h294q5 0 8 -13t3 -30q0 -16 -3 -30.5t-8 -14.5h-294v-293q0 -4 -16.5 -7t-35.5 -3q-37 0 -37 6v297h-292q-4 0 -7.5 15.5t-3.5 31.5z" />
<glyph unicode="," horiz-adv-x="454" d="M102 76q0 45 28 68.5t79 23.5q63 0 100 -49t37 -139q0 -86 -38 -159t-113 -147q-2 -2 -7 -2q-6 0 -10 6.5t0 10.5q100 102 101 241q0 57 -21 84q-18 -31 -68 -30q-41 0 -64.5 25.5t-23.5 66.5z" />
<glyph unicode="-" horiz-adv-x="661" d="M55 383q0 41 6 41l535 96q4 2 7 -12t3 -33q0 -16 -3 -30.5t-7 -16.5l-530 -96q-5 -2 -8 15.5t-3 35.5z" />
<glyph unicode="." horiz-adv-x="409" d="M106 78q0 45 27 70.5t74 25.5t72.5 -25.5t25.5 -70.5q0 -47 -25.5 -74t-72.5 -27q-45 0 -73 28t-28 73z" />
<glyph unicode="/" horiz-adv-x="704" d="M53 -311l516 1806q4 8 45 -5t37 -22l-514 -1804q-2 -8 -44 4.5t-40 20.5z" />
<glyph unicode="0" horiz-adv-x="976" d="M66 401q0 121 55 215.5t152.5 147.5t220.5 53q121 0 216 -54t148 -150.5t53 -217.5t-53 -217t-149.5 -150.5t-216.5 -54.5q-123 0 -220.5 55.5t-151.5 153t-54 219.5zM231 420q0 -182 78 -298t205 -116q113 0 171 97.5t58 265.5q0 207 -76.5 311t-193.5 104 q-115 0 -178.5 -100t-63.5 -264z" />
<glyph unicode="1" horiz-adv-x="679" d="M86 637q-4 10 4 14l330 158q2 2 6 2q6 0 10 -5t4 -11v-629q0 -63 13.5 -92t53.5 -39t126 -10q6 0 6 -12.5t-6 -12.5q-70 0 -109 2l-155 2l-154 -2q-41 -2 -113 -2q-4 0 -4 12.5t4 12.5q86 0 126 10t55.5 39.5t15.5 91.5v375q0 76 -11.5 105.5t-45.5 29.5q-39 0 -144 -47 l-2 -2q-6 0 -10 10z" />
<glyph unicode="2" horiz-adv-x="823" d="M74 15.5q-6 15.5 2 23.5q178 149 271 240.5t134 161t41 139.5q0 80 -47 133t-123 53q-80 0 -136 -65.5t-95 -194.5q0 -2 -8 -2q-18 0 -17 8l84 324q0 4 8 4q6 0 11.5 -3t3.5 -6q-2 -8 -2 -22q0 -33 30 -33q18 0 62 15q88 27 153 26q106 0 168 -55t62 -146 q0 -78 -51.5 -151.5t-130 -141t-236.5 -188.5q-8 -6 -5 -10t13 -4q207 0 293 6t128 30.5t56 86.5q2 6 13.5 5t11.5 -5l-35 -221q0 -8 -5 -15.5t-13 -7.5h-625q-10 0 -16 15.5z" />
<glyph unicode="3" horiz-adv-x="800" d="M63 535l76 299q4 4 8 4q6 0 12.5 -3.5t4.5 -5.5q-4 -16 -4 -22q0 -35 35 -35q23 0 65 16q47 14 81 21.5t75 7.5q115 0 181.5 -68.5t66.5 -164.5q0 -98 -59.5 -185.5t-160.5 -130.5q138 -18 208.5 -99t70.5 -189q0 -100 -66.5 -203t-203 -193t-336.5 -147q-8 -2 -13.5 9 t2.5 13q238 80 342.5 218.5t104.5 277.5q0 115 -58.5 189.5t-170.5 74.5q-55 0 -97 -12q-6 -2 -10 10t4 14q154 39 220.5 114t66.5 204q0 102 -40 160.5t-120 58.5q-182 0 -260 -240q0 -2 -8 -2q-18 0 -17 9z" />
<glyph unicode="4" horiz-adv-x="927" d="M47 24.5q-6 8.5 2 16.5l608 770q4 4 13 4q6 0 12 -3t6 -9v-715q45 0 164 4q8 0 8 -37q0 -18 -3 -35.5t-7 -17.5q-59 4 -162 8v-311q0 -23 -16 -29l-109 -55l-12 -4q-6 0 -6 16v387q-127 2 -482 2q-10 0 -16 8.5zM157 84q3 -4 13 -4q166 0 375 4v489l-385 -479 q-6 -6 -3 -10z" />
<glyph unicode="5" horiz-adv-x="837" d="M119 367l65 364q2 14 6.5 17.5t20.5 5.5q258 31 346 43t113.5 25.5t36.5 43.5q2 6 13 5t9 -9l-41 -174q-8 -25 -19.5 -31t-37.5 -6l-387 -8q-27 0 -31 -31l-39 -211q285 -2 418 -104t133 -279q0 -117 -59.5 -212t-187.5 -184t-339 -185h-2q-8 0 -13 9t3 13 q242 125 340 252t98 273q0 170 -110.5 264t-315.5 94q-10 0 -16 7t-4 18z" />
<glyph unicode="6" horiz-adv-x="952" d="M90 426q0 190 88 374.5t253 330t388 223.5q8 2 12.5 -8.5t-2.5 -14.5q-188 -88 -319 -230.5t-197.5 -309t-66.5 -332.5q0 -188 76.5 -315.5t205.5 -127.5q92 0 147.5 68t55.5 186q0 111 -49 178.5t-145 67.5q-49 0 -91.5 -19.5t-95.5 -64.5q-2 -2 -6 -2q-6 0 -11 6t-3 10 q115 137 288 138q136 0 202.5 -76t66.5 -182q0 -96 -56.5 -177t-151.5 -128.5t-208 -47.5q-176 0 -278.5 119t-102.5 334z" />
<glyph unicode="7" horiz-adv-x="878" d="M41 530l78 316q2 4 14 3t10 -5q-2 -8 -2 -21q0 -20 19.5 -26t79.5 -6h542q8 0 15.5 -9.5t3.5 -17.5l-459 -1206q-12 -36 -43 -50l-123 -71h-2q-4 0 -9 5t-3 9l540 1198q8 14 -8 15q-299 0 -415.5 -8.5t-154.5 -35t-58 -96.5q-4 -4 -11 -4q-6 0 -11 3t-3 7z" />
<glyph unicode="8" horiz-adv-x="1001" d="M90 309q0 117 77 219.5t198 163.5q-76 49 -117 104.5t-41 129.5q0 82 49 138t124 84t150 28q84 0 148.5 -32t99.5 -81t35 -102q0 -66 -51 -133.5t-144 -120.5q103 -60 165.5 -106t106.5 -112.5t44 -156.5q0 -100 -59.5 -182t-160 -129.5t-218.5 -47.5q-121 0 -213.5 46.5 t-142.5 123t-50 166.5zM248 362q0 -92 39 -171.5t108.5 -129t155.5 -49.5q106 0 175 71t69 179q0 88 -43 152.5t-103.5 105.5t-169.5 103l-84 49q-70 -55 -108.5 -135t-38.5 -175zM342 993q0 -84 63.5 -143t188.5 -129q41 51 62.5 101t21.5 106q0 94 -52.5 152.5 t-131.5 58.5q-68 0 -110 -39t-42 -107z" />
<glyph unicode="9" horiz-adv-x="952" d="M66 500q0 92 49 163.5t135 112.5t192 41q195 0 307.5 -129t112.5 -344q0 -186 -87 -369.5t-253 -327t-389 -210.5q-6 -2 -11 8t3 14q186 78 317 218.5t198 305t67 322.5q0 109 -30 217.5t-96.5 182t-168.5 73.5q-92 0 -141.5 -62.5t-49.5 -172.5q0 -115 53.5 -186.5 t153.5 -71.5q49 0 87 16t87 55q2 2 6 2q6 0 12.5 -6t4.5 -10q-49 -59 -119 -91t-152 -32q-98 0 -163.5 42t-95 106.5t-29.5 132.5z" />
<glyph unicode=":" horiz-adv-x="409" d="M106 78q0 45 27 70.5t74 25.5t72.5 -25.5t25.5 -70.5q0 -47 -25.5 -74t-72.5 -27q-45 0 -73 28t-28 73zM106 653q0 45 27 70.5t74 25.5t72.5 -25.5t25.5 -70.5q0 -47 -25.5 -74t-72.5 -27q-45 0 -73 28t-28 73z" />
<glyph unicode=";" horiz-adv-x="464" d="M110 76q0 45 28 68.5t79 23.5q63 0 100 -49t37 -139q0 -86 -38 -159t-113 -147q-2 -2 -7 -2q-6 0 -10 6.5t0 10.5q100 102 101 241q0 57 -21 84q-18 -31 -68 -30q-41 0 -64.5 25.5t-23.5 66.5zM110 653q0 45 27 70.5t74 25.5t72.5 -25.5t25.5 -70.5q0 -47 -25.5 -74 t-72.5 -27q-45 0 -73 28t-28 73z" />
<glyph unicode="&#x3c;" horiz-adv-x="833" d="M63 389q0 31 11 35l684 301q6 4 10 -7t4 -30q0 -43 -14 -51l-584 -248l584 -248q14 -6 14 -53q0 -43 -14 -37l-684 303q-10 6 -11 35z" />
<glyph unicode="=" horiz-adv-x="958" d="M59 248q0 14 2 26.5t7 12.5h821q4 0 7 -13.5t3 -27.5q0 -16 -3 -29.5t-7 -13.5h-819q-4 0 -7.5 14t-3.5 31zM59 535q0 14 2 26t7 12h821q4 0 7 -13t3 -28q0 -16 -3 -29.5t-7 -13.5h-819q-4 0 -7.5 14.5t-3.5 31.5z" />
<glyph unicode="&#x3e;" horiz-adv-x="833" d="M61 88q0 16 4.5 32.5t10.5 18.5l583 248l-583 248q-6 4 -10.5 20.5t-4.5 32.5q0 18 4.5 29.5t10.5 7.5l684 -303q10 -4 10 -35q0 -29 -10 -35l-684 -301q-6 -2 -10.5 9.5t-4.5 27.5z" />
<glyph unicode="?" horiz-adv-x="679" d="M80 1128q0 63 73.5 107.5t180.5 44.5q125 0 207 -63.5t82 -182.5q0 -63 -24 -110t-50.5 -73t-95.5 -89q-68 -63 -96.5 -122.5t-28.5 -131.5q0 -35 10 -111v-2q0 -4 -12.5 -7t-14.5 3q-23 53 -38 126t-15 120q0 63 23.5 104t70.5 93q51 53 78 101t27 126q0 84 -35 136 t-92 52q-43 0 -58.5 -24.5t-21.5 -67.5q-6 -47 -24.5 -76.5t-65.5 -29.5q-39 0 -59.5 23.5t-20.5 53.5zM205 78q0 45 26.5 70.5t73.5 25.5t72.5 -25.5t25.5 -70.5q0 -47 -25.5 -74t-72.5 -27q-45 0 -72.5 28t-27.5 73z" />
<glyph unicode="@" horiz-adv-x="1478" d="M145 356q0 188 94.5 339t250 236t331.5 85q156 0 274.5 -64.5t184.5 -172t66 -234.5q0 -115 -53.5 -215.5t-142.5 -160.5t-194 -60q-120 -1 -120 122q0 27 6 58l14 71q-70 -117 -155 -186.5t-158 -69.5q-49 0 -79 31t-30 96q0 27 2 41q16 111 85 217.5t161 174t174 67.5 q29 0 55.5 -11t44.5 -34q16 10 29.5 25.5t15.5 33.5q4 4 13 5q8 0 15 -2.5t9 -4.5l-84 -458q-6 -31 -6 -60q0 -37 16.5 -55t57.5 -18q53 0 108.5 38.5t91 114.5t35.5 178q0 133 -65.5 245t-181 176.5t-256.5 64.5q-156 0 -270.5 -77t-176 -205t-61.5 -279q0 -164 70.5 -288 t198.5 -191.5t296 -67.5q96 0 172 21.5t168 76.5h2q4 0 9 -7t1 -9q-182 -147 -422 -148q-168 0 -303 67.5t-214 194.5t-79 299zM561 281q0 -80 51 -80q50 0 108 53t106 136t67 167q4 25 4 35q0 41 -19.5 66.5t-56.5 25.5q-51 0 -104 -46t-94 -123t-56 -163q-6 -39 -6 -71z " />
<glyph unicode="A" d="M-10 12.5q0 12.5 8 12.5q57 0 97 22.5t77 77.5t84 164l436 1005q2 6 14.5 7.5t14.5 -7.5l493 -1013q70 -150 119 -203t111 -53q8 0 8 -12.5t-8 -12.5q-39 0 -125 4q-82 4 -121 4q-47 0 -117 -4t-104 -4q-8 0 -8 12.5t8 12.5q70 0 100.5 13t30.5 48t-31 96l-229 475h-377 l-168 -387q-29 -68 -29 -112q0 -133 199 -133q10 0 10 -12.5t-10 -12.5q-37 0 -106 4q-78 4 -136 4q-53 0 -127 -4q-66 -4 -106 -4q-8 0 -8 12.5zM489 705h336l-176 368z" />
<glyph unicode="B" horiz-adv-x="1167" d="M82 12.5q0 12.5 6 12.5q72 0 105.5 11t48 39.5t14.5 90.5v948q0 61 -13.5 90t-47 40t-105.5 11q-4 0 -4 12.5t4 12.5l103 -2q90 -4 143 -4q55 0 121 6q23 2 54.5 4t68.5 2q176 0 268 -72.5t92 -195.5q0 -98 -63.5 -177t-178.5 -120q164 -14 264.5 -110.5t100.5 -235.5 q0 -109 -56.5 -196t-153.5 -137t-218 -50q-66 0 -143 6q-29 2 -68 4t-88 2l-143 -2q-39 -2 -105 -2q-6 0 -6 12.5zM418 166q0 -51 14 -79t53 -41t117 -13q146 0 216.5 75.5t70.5 217.5q0 156 -86 250t-244 96h-29q-47 0 -112 -4v-502zM418 721l90 -3q135 0 202.5 78 t67.5 205q0 117 -58 183.5t-179 66.5q-49 0 -75 -10t-37 -40t-11 -91v-389z" />
<glyph unicode="C" horiz-adv-x="1370" d="M100 649q0 190 105.5 339t278.5 232t370 83q94 0 194.5 -17.5t159.5 -48.5q16 -8 21.5 -17.5t9.5 -31.5l23 -248q0 -6 -10.5 -7t-12.5 5q-53 160 -174 238.5t-291 78.5q-150 0 -260.5 -68.5t-168.5 -193.5t-58 -288q0 -190 73.5 -350t199.5 -253.5t276 -93.5 q295 0 421 338q0 6 9 6q6 0 11 -2t5 -6l-29 -248q-4 -25 -9 -32t-23 -15q-188 -74 -385 -74q-248 0 -414 99.5t-244 253t-78 321.5z" />
<glyph unicode="D" horiz-adv-x="1425" d="M63.5 12.5q-0.5 12.5 4.5 12.5q74 0 108.5 10t47 39.5t12.5 91.5v948q0 61 -12.5 90t-46.5 40t-105 11q-6 0 -6 12.5t6 12.5l102 -2q90 -4 143 -4q78 0 158 6q98 4 131 4q211 0 375 -82t254 -223t90 -317q0 -199 -93 -351.5t-251 -235.5t-346 -83q-61 0 -141 6 q-31 2 -76 4t-101 2l-143 -2q-39 -2 -106 -2q-4 0 -4.5 12.5zM399 188q0 -88 44 -123.5t171 -35.5q154 0 272 68.5t184.5 200.5t66.5 318q0 178 -62.5 322.5t-178.5 227.5t-269 83q-88 0 -135.5 -10t-70 -40t-22.5 -89v-922z" />
<glyph unicode="E" horiz-adv-x="1110" d="M82 12.5q0 12.5 6 12.5q74 0 106.5 10t45 39.5t12.5 91.5v948q0 61 -12.5 90t-46 40t-105.5 11q-6 0 -6 12.5t6 12.5h836q20 0 20 -18l4 -258q0 -6 -11 -7.5t-13 4.5q-14 113 -80 171.5t-172 58.5h-105q-90 0 -120.5 -25.5t-30.5 -99.5v-416h225q104 0 153.5 36t49.5 112 q0 4 11 4t11 -4l-2 -172l2 -93q4 -66 4 -102q0 -4 -12 -4t-12 4q0 88 -50.5 130t-160.5 42h-219v-469q0 -74 27.5 -100.5t111.5 -26.5h133q117 0 193.5 68.5t105.5 195.5q0 4 8 4q6 0 11.5 -3t5.5 -5q-20 -147 -21 -276q0 -16 -6 -23.5t-24 -7.5h-873q-6 0 -6 12.5z" />
<glyph unicode="F" horiz-adv-x="1050" d="M76 12.5q0 12.5 4 12.5q76 0 111.5 10t48 39.5t12.5 91.5v948q0 61 -12.5 90t-46 40t-105.5 11q-6 0 -6 12.5t6 12.5h836q20 0 20 -18l4 -258q0 -6 -11 -7.5t-13 4.5q-14 113 -80 171.5t-172 58.5h-105q-88 0 -119.5 -24.5t-31.5 -94.5v-446h188q111 0 163 36.5t52 110.5 q0 4 12.5 4t12.5 -4l-2 -172q0 -61 2 -92l2 -103q0 -4 -12.5 -4t-12.5 4q0 88 -53 130t-170 42h-182v-444q0 -66 17.5 -95.5t66.5 -41.5t155 -12q4 0 4 -12.5t-4 -12.5q-84 0 -131 2l-192 2l-144 -2q-39 -2 -108 -2q-4 0 -4 12.5z" />
<glyph unicode="G" horiz-adv-x="1466" d="M100 625q0 199 101.5 352t278.5 239.5t399 86.5q98 0 191 -18.5t153 -49.5q16 -10 20 -18.5t6 -28.5l27 -248q0 -6 -11.5 -7t-13.5 5q-53 152 -174 233.5t-291 81.5q-242 0 -372.5 -147.5t-130.5 -405.5q0 -201 77.5 -357.5t214 -244.5t308.5 -88q98 0 151 18.5t78 72 t25 157.5q0 106 -13.5 148.5t-57.5 56.5t-153 14q-12 0 -12 17q0 6 3 11t7 5q164 -10 267 -10q96 0 204 6q4 0 7.5 -5t3.5 -9q0 -14 -11 -15h-10q-37 0 -54 -13q-18 -15 -23 -62.5t-5 -163.5q0 -92 7.5 -131t7.5 -50q0 -12 -5.5 -15t-19.5 -9q-252 -57 -449 -58 q-223 0 -389 86t-254 233.5t-88 330.5z" />
<glyph unicode="H" horiz-adv-x="1558" d="M63.5 12.5q-0.5 12.5 4.5 12.5q76 0 111.5 10t49 39.5t13.5 91.5v948q0 61 -12.5 90t-47.5 40t-110 11q-6 0 -6 12.5t6 12.5l104 -2q86 -4 143 -4q66 0 160 4l103 2q4 0 4 -12.5t-4 -12.5q-76 0 -113 -12t-50 -42t-13 -91v-420h745v420q0 61 -13.5 91t-49 42t-113.5 12 q-6 0 -6 12.5t6 12.5l96 -2q94 -4 162 -4q57 0 147 4l105 2q6 0 6 -12.5t-6 -12.5q-76 0 -111 -11t-48 -39.5t-13 -90.5v-948q0 -61 13 -91t48 -40t111 -10q6 0 6 -12.5t-6 -12.5q-66 0 -105 2l-147 2l-162 -2q-35 -2 -96 -2q-6 0 -6 12.5t6 12.5q78 0 114.5 10t49 39.5 t12.5 91.5v477h-745v-477q0 -61 12 -91t49 -40t115 -10q4 0 4 -12.5t-4 -12.5q-66 0 -105 2l-158 2l-145 -2q-39 -2 -106 -2q-4 0 -4.5 12.5z" />
<glyph unicode="I" horiz-adv-x="686" d="M88 12.5q0 12.5 4 12.5q74 0 109 10t47 39.5t12 91.5v948q0 61 -12 90t-47 40t-109 11q-4 0 -4 12.5t4 12.5l107 -2q90 -4 143 -4q59 0 150 4l100 2q4 0 4 -12.5t-4 -12.5q-72 0 -106.5 -12t-47 -42t-12.5 -91v-944q0 -62 12.5 -91.5t46 -39.5t107.5 -10q4 0 4 -12.5 t-4 -12.5q-66 0 -103 2l-147 2l-143 -2q-39 -2 -107 -2q-4 0 -4 12.5z" />
<glyph unicode="J" horiz-adv-x="671" d="M-100 -399q0 35 20.5 57.5t59.5 22.5q41 0 62 -19.5t42 -58.5q18 -33 31.5 -46.5t36.5 -13.5q63 0 95 80t32 260v1231q0 61 -14.5 90t-54.5 40t-124 11q-4 0 -4 12.5t4 12.5l121 -2q94 -4 151 -4q53 0 136 4l92 2q4 0 4 -12.5t-4 -12.5q-63 0 -92 -12t-39.5 -42 t-10.5 -91v-1151q0 -213 -100 -335t-287 -122q-72 0 -114.5 27t-42.5 72z" />
<glyph unicode="K" horiz-adv-x="1335" d="M63.5 12.5q-0.5 12.5 4.5 12.5q74 0 108.5 10t47 39.5t12.5 91.5v948q0 61 -12.5 90t-46.5 40t-105 11q-6 0 -6 12.5t6 12.5l102 -2q90 -4 143 -4q57 0 148 4l100 2q4 0 4 -12.5t-4 -12.5q-72 0 -106.5 -12t-47 -42t-12.5 -91v-434l420 424q66 66 66 102q0 53 -121 53 q-6 0 -6 12.5t6 12.5l90 -2q82 -4 156 -4t151 4l82 2q6 0 6 -12.5t-6 -12.5q-88 0 -188.5 -42t-184.5 -126l-295 -292l297 -387q145 -193 220 -272t117 -95t118 -16q6 0 6 -12.5t-6 -12.5h-229l-64 -2q-29 0 -44 8t-34.5 30.5t-64.5 84.5q-18 23 -49 64.5t-84 111.5 l-297 385l-62 -59v-457q0 -61 12.5 -91t46.5 -40t107 -10q6 0 6 -12.5t-6 -12.5q-66 0 -102 2l-146 2l-143 -2q-39 -2 -106 -2q-4 0 -4.5 12.5z" />
<glyph unicode="L" horiz-adv-x="1099" d="M63.5 12.5q-0.5 12.5 4.5 12.5q74 0 107.5 10t45.5 39.5t12 91.5v948q0 61 -12 90t-46 40t-107 11q-4 0 -4.5 12.5t4.5 12.5l102 -2q90 -4 145 -4t146 4l102 2q4 0 4 -12.5t-4 -12.5q-72 0 -106.5 -11t-47 -40.5t-12.5 -91.5v-938q0 -57 11.5 -82.5t42 -35t96.5 -9.5h174 q129 0 214 77t114 208q0 6 11 5t11 -7q-18 -180 -18 -299q0 -16 -7.5 -23.5t-23.5 -7.5h-954q-4 0 -4.5 12.5z" />
<glyph unicode="M" horiz-adv-x="1724" d="M68 12.5q0 12.5 4 12.5q170 0 172 211l18 917q-66 102 -176 102q-4 0 -4 12.5t4 12.5l82 -2q25 -2 63 -2q45 0 74 2t45 2q27 0 43.5 -18.5t50.5 -87.5l455 -924l428 979q20 51 62 51q12 0 32.5 -2t53.5 -2l104 2q25 2 72 2q6 0 6 -12.5t-6 -12.5q-101 -1 -145 -33 q-43 -31 -42 -107v-7l45 -942q4 -63 16.5 -92t45.5 -39t106 -10q4 0 4 -12.5t-4 -12.5q-66 0 -104 2l-146 2l-137 -2q-35 -2 -96 -2q-6 0 -6 12.5t6 12.5q90 0 122 20.5t32 85.5l-2 35l-39 901l-453 -1053q-4 -8 -16 -8t-17 8l-510 1045l-16 -823v-10q0 -101 39 -150 q41 -51 133 -51q6 0 6 -12.5t-6 -12.5q-55 0 -86 2l-113 2l-112 -2q-29 -2 -84 -2q-4 0 -4 12.5z" />
<glyph unicode="N" horiz-adv-x="1495" d="M66 1267.5q0 12.5 6 12.5l80 -2q25 -2 69 -2l107 2q18 2 47 2q16 0 23.5 -7t23.5 -32q18 -29 51 -67l762 -920v788q0 109 -39 161t-121 52q-4 0 -4 12.5t4 12.5l82 -2q61 -4 105 -4q37 0 106 4l86 2q6 0 6 -12.5t-6 -12.5q-168 0 -168 -213v-1069q0 -4 -9 -6t-13 2 l-961 1139v-872q0 -109 40 -160t122 -51q6 0 6 -12.5t-6 -12.5q-53 0 -82 2l-104 2l-111 -2q-31 -2 -90 -2q-4 0 -4 12.5t4 12.5q88 0 130 51t42 160v929q-90 90 -178 90q-6 0 -6 12.5z" />
<glyph unicode="O" horiz-adv-x="1568" d="M100 639q0 211 106.5 361.5t273.5 226.5t341 76q195 0 342.5 -91.5t226 -241t78.5 -317.5q0 -186 -98 -341.5t-263 -246t-357 -90.5q-191 0 -339.5 89.5t-229.5 242t-81 332.5zM287 711q0 -195 67.5 -352.5t189.5 -248t277 -90.5q131 0 235.5 68t165 198t60.5 310 q0 190 -66.5 339.5t-190.5 233.5t-288 84q-213 0 -331.5 -144t-118.5 -398z" />
<glyph unicode="P" horiz-adv-x="1118" d="M76 12.5q0 12.5 4 12.5q74 0 107.5 10t46 39.5t12.5 91.5v948q0 61 -12.5 90t-46 40t-107.5 11q-4 0 -4 12.5t4 12.5l106 -2q86 -4 140 -4q49 0 116 6q25 0 77 3t91 3q193 0 309.5 -85t116.5 -257q0 -133 -66.5 -225t-170 -137t-213.5 -45q-59 0 -99 10q-6 0 -6 10 q0 6 3 12t8 4q33 -8 73 -8q121 0 205 88t84 254q0 162 -82 253t-217 91q-61 0 -91 -9t-42 -38.5t-12 -93.5v-936q0 -65 16 -95t62.5 -42t148.5 -12q6 0 6 -12.5t-6 -12.5q-84 0 -131 2l-178 2l-142 -2q-39 -2 -106 -2q-4 0 -4 12.5z" />
<glyph unicode="Q" horiz-adv-x="1568" d="M100 639q0 211 106.5 361.5t273.5 226.5t341 76q195 0 342.5 -91.5t226 -241t78.5 -317.5q0 -150 -64.5 -280.5t-177 -225t-253.5 -139.5q84 -156 220 -255t259 -99q37 0 74 4h2q4 0 7 -9t-1 -11q-98 -25 -172 -25q-145 0 -307 96t-277 266h-28q-190 0 -339 89.5 t-230 242t-81 332.5zM287 711q0 -195 67.5 -352.5t189.5 -248t277 -90.5q131 0 235.5 68t165 198t60.5 310q0 190 -66.5 339.5t-190.5 233.5t-288 84q-213 0 -331.5 -144t-118.5 -398z" />
<glyph unicode="R" horiz-adv-x="1394" d="M82 12.5q0 12.5 6 12.5q74 0 108.5 10t47 39.5t12.5 91.5v948q0 61 -12.5 90t-46 40t-107.5 11q-4 0 -4 12.5t4 12.5l103 -2q90 -4 143 -4q37 0 69.5 2t57.5 4q68 6 127 6q174 0 268 -68.5t94 -189.5q0 -96 -57 -182t-150 -139q172 -260 288 -406.5t206 -211t176 -64.5 q4 0 4 -12.5t-4 -12.5h-297q-49 0 -185 175t-325 480q-47 -10 -90 -10q-39 0 -100 4v-483q0 -61 12 -91t46 -40t108 -10q6 0 6 -12.5t-6 -12.5q-63 0 -101 2l-147 2l-143 -2q-39 -2 -105 -2q-6 0 -6 12.5zM418 702q78 -8 121 -8q131 0 187 58.5t56 201.5q0 162 -61.5 229.5 t-169.5 67.5q-53 0 -81 -10t-40 -40t-12 -91v-408z" />
<glyph unicode="S" horiz-adv-x="1021" d="M143 383q-2 8 9.5 10t13.5 -6q49 -156 137 -264.5t229 -108.5q96 0 161 52.5t65 171.5q0 90 -41 157.5t-99.5 113.5t-156.5 105q-96 61 -152.5 105.5t-95.5 109t-39 150.5q0 104 56.5 178t147.5 110t191 36q137 0 248 -48q31 -12 31 -36l10 -256q0 -8 -10 -10.5t-12 5.5 q-23 111 -96.5 210.5t-209.5 99.5q-102 0 -158.5 -61.5t-56.5 -155.5q0 -78 39 -136.5t94.5 -100.5t153.5 -101q102 -63 162.5 -109.5t103.5 -114t43 -159.5q0 -100 -52 -181t-149.5 -127.5t-226.5 -46.5q-82 0 -161.5 19.5t-139.5 56.5q-10 6 -14 14.5t-4 24.5z" />
<glyph unicode="T" horiz-adv-x="1304" d="M78 942q8 59 18 188.5t10 194.5q0 10 12.5 10t12.5 -10q0 -45 113 -45q174 -6 411 -6q121 0 256 4l140 2q76 0 110.5 10t44.5 41q2 8 13.5 8t11.5 -8q-6 -57 -13.5 -184t-7.5 -205q0 -4 -11 -4t-11 4q-14 158 -82 227.5t-201 69.5q-76 0 -108.5 -9t-45 -35t-12.5 -85 v-944q0 -63 13.5 -92t52.5 -39t125 -10q4 0 4 -12.5t-4 -12.5q-72 0 -113 2l-162 2l-157 -2q-41 -2 -115 -2q-6 0 -6 12.5t6 12.5q84 0 123 10t53 39.5t14 91.5v948q0 57 -12 83t-45 34t-108 8q-127 0 -199 -70.5t-107 -226.5q-2 -4 -13 -4t-11 4z" />
<glyph unicode="U" horiz-adv-x="1433" d="M55 1267.5q0 12.5 6 12.5l103 -2q90 -4 143 -4q57 0 148 4l98 2q6 0 6 -12.5t-6 -12.5q-72 0 -105.5 -12t-46 -42t-12.5 -91v-582q0 -242 105.5 -365.5t296.5 -123.5q178 0 279 111.5t101 312.5v579q0 105 -46 159t-136 54q-6 0 -6 12.5t6 12.5l92 -2q74 -4 117 -4 q37 0 107 4l88 2q4 0 4 -12.5t-4 -12.5q-166 0 -166 -213v-577q0 -229 -134.5 -360.5t-357.5 -131.5q-152 0 -266.5 58.5t-178 168t-63.5 257.5v657q0 61 -12 90t-46 40t-108 11q-6 0 -6 12.5z" />
<glyph unicode="V" horiz-adv-x="1359" d="M-4 1267.5q0 12.5 6 12.5l64 -2q53 -4 100 -4q113 0 215 4q33 2 84 2q6 0 6 -12.5t-6 -12.5q-127 0 -127 -79q0 -29 18 -72l406 -881l336 854q16 45 16 78q0 100 -156 100q-6 0 -6 12.5t6 12.5l93 -2q74 -4 135 -4q43 0 96 4l86 2q6 0 6 -12.5t-6 -12.5q-147 0 -221 -186 l-418 -1067q-2 -8 -22 -8t-23 8l-514 1108q-37 78 -75 111.5t-93 33.5q-6 0 -6 12.5z" />
<glyph unicode="W" horiz-adv-x="1894" d="M-4 1267.5q0 12.5 6 12.5l64 -2q53 -4 100 -4q92 0 182 4q29 2 78 2q6 0 6 -12.5t-6 -12.5q-59 0 -86 -12t-27 -47q0 -29 29 -92l416 -887l166 420l-219 473q-35 76 -71 110.5t-87 34.5q-6 0 -6 12.5t6 12.5l63 -2q49 -4 90 -4q78 0 144 4q20 2 55 2q6 0 6 -12.5 t-6 -12.5q-35 0 -50 -7t-15 -25q0 -16 12 -47t31 -72l131 -281l100 254q29 76 29 115q0 63 -76 63q-4 0 -4 12.5t4 12.5l41 -2q37 -4 94 -4q39 0 88 4l84 2q4 0 4 -12.5t-4 -12.5q-70 0 -121 -43t-90 -143l-121 -305l256 -547l336 852q18 47 19 84q0 102 -144 102 q-6 0 -6 12.5t6 12.5l88 -2q74 -4 129 -4q41 0 95 4l88 2q4 0 4 -12.5t-4 -12.5q-147 0 -222 -186l-417 -1067q-2 -8 -23 -8q-20 0 -22 8l-267 573l-223 -573q-2 -8 -22 -8t-23 8l-514 1108q-39 86 -73 115.5t-95 29.5q-6 0 -6 12.5z" />
<glyph unicode="X" horiz-adv-x="1331" d="M20.5 12.5q-0.5 12.5 6.5 12.5q68 0 144.5 54t156.5 161l264 358l-330 504q-55 84 -106.5 118.5t-118.5 34.5q-4 0 -4 12.5t4 12.5l82 -2q53 -4 80 -4q70 0 172 4l108 2q6 0 6 -12.5t-6 -12.5q-47 0 -69.5 -8t-22.5 -28q0 -16 19 -45l290 -445l217 307q63 92 64 144 q0 75 -110 75h-3q-6 0 -6 12.5t6 12.5l94 -2q82 -4 146 -4q37 0 90 4l78 2q6 0 6 -12.5t-6 -12.5q-68 0 -148 -57t-159 -170l-246 -334l344 -524q53 -80 108.5 -112.5t135.5 -32.5q4 0 4 -12.5t-4 -12.5q-55 0 -88 2l-115 2l-160 -2q-39 -2 -104 -2q-4 0 -4 12.5t4 12.5 q47 0 69.5 8t22.5 26t-19 45l-301 461l-233 -332q-57 -78 -57 -133q0 -75 111 -75h3q6 0 6 -12.5t-6 -12.5q-63 0 -96 2l-143 2l-93 -2q-25 -2 -77 -2q-6 0 -6.5 12.5z" />
<glyph unicode="Y" horiz-adv-x="1253" d="M-4 1267.5q0 12.5 6 12.5q23 0 72 -4l67 -2q68 0 187 4l118 2q4 0 4.5 -12.5t-4.5 -12.5q-96 0 -96 -49q0 -23 23 -57l315 -471l230 362q49 80 49 131q0 41 -29 62.5t-84 21.5q-6 0 -6 12.5t6 12.5l100 -2q82 -4 150 -4q35 0 84 4l76 2q4 0 4 -12.5t-4 -12.5 q-70 0 -151 -62.5t-144 -164.5l-254 -399v-463q0 -63 11 -92t45 -39t108 -10q6 0 6 -12.5t-6 -12.5q-63 0 -101 2l-147 2l-144 -2q-37 -2 -104 -2q-6 0 -6 12.5t6 12.5q74 0 108.5 10t47 39.5t12.5 91.5v428l-326 485q-66 98 -116 137t-107 39q-6 0 -6 12.5z" />
<glyph unicode="Z" horiz-adv-x="1224" d="M111 1010l82 331q0 2 8 2q20 0 16 -6q-2 -6 -2 -16q0 -25 23.5 -33t95.5 -8h747q10 0 15.5 -10t-0.5 -17l-770 -1198q-8 -10 -6 -13t14 -3h487q129 0 209 64.5t103 185.5q2 4 12 4t10 -4l-29 -273q0 -6 -5 -13t-13 -7q-305 4 -981 4q-8 0 -12 9t2 18l780 1202q6 10 5 13 t-15 3q-322 0 -453 -13t-191.5 -60.5t-107.5 -165.5q-4 -4 -8 -5q-6 0 -12 3.5t-4 5.5z" />
<glyph unicode="[" horiz-adv-x="561" d="M168 -217v1681q0 14 3 17.5t15 3.5h297q6 0 6 -12.5t-6 -12.5q-74 0 -109.5 -12t-48 -42t-12.5 -91v-1385q0 -61 12.5 -90.5t48.5 -42t109 -12.5q6 0 6 -12.5t-6 -12.5h-297q-12 0 -15 4.5t-3 18.5z" />
<glyph unicode="\" horiz-adv-x="704" d="M53 1468q-4 10 37 22.5t45 4.5l516 -1806q4 -8 -38 -20.5t-46 -4.5z" />
<glyph unicode="]" horiz-adv-x="561" d="M72 -227.5q0 12.5 6 12.5q74 0 109.5 12.5t48 42t12.5 90.5v1385q0 61 -12.5 91t-48 42t-109.5 12q-6 0 -6 12.5t6 12.5h297q12 0 15 -3t3 -18v-1681q0 -14 -3 -18.5t-15 -4.5h-297q-6 0 -6 12.5z" />
<glyph unicode="^" horiz-adv-x="802" d="M119 778l260 510q2 10 22 10t23 -10l258 -510v-2q0 -4 -8 -8t-10 0l-263 328l-262 -328q-2 -2 -6 -2t-10 5t-4 7z" />
<glyph unicode="_" horiz-adv-x="815" d="M59 -113q0 14 3.5 27.5t5.5 13.5h677q4 0 7.5 -14t3.5 -31q0 -16 -3 -29.5t-8 -13.5h-675q-4 0 -7.5 15.5t-3.5 31.5z" />
<glyph unicode="`" horiz-adv-x="436" d="M74 1489q-3 8 20 8q33 0 80 -11t49 -20l92 -491q2 -4 -8 -7t-12 3z" />
<glyph unicode="a" horiz-adv-x="860" d="M100 109q0 59 44 91.5t163 73.5l236 82v166q0 131 -32 187.5t-91 56.5q-63 0 -99 -46t-45 -120q-8 -90 -90 -90q-37 0 -57 18.5t-20 51.5q0 49 64.5 103t154.5 90t161 36q86 0 139.5 -56.5t53.5 -168.5v-363q0 -68 19.5 -100.5t60.5 -32.5q37 0 88 23h2q8 0 11 -9.5 t-5 -13.5l-211 -100q-8 -4 -18 -4q-27 0 -50.5 33.5t-31.5 93.5l-117 -64q-117 -61 -194 -61q-63 0 -99.5 33.5t-36.5 89.5zM270 160q0 -43 24.5 -67.5t63.5 -24.5q45 0 91 24l94 49v21v166l-181 -68q-49 -18 -70.5 -41.5t-21.5 -58.5z" />
<glyph unicode="b" horiz-adv-x="1048" d="M17.5 1339.5q-3.5 10.5 2.5 12.5l271 131l10 2q6 0 14.5 -6t8.5 -15v-811q70 74 147.5 119t171.5 45q90 0 166 -43t121 -128t45 -208q0 -150 -63.5 -254t-166 -157.5t-217.5 -53.5q-158 0 -282 93l-166 -76h-4q-8 0 -9 7t5 11q59 41 85.5 84t26.5 119v1006 q0 74 -14 106.5t-51 32.5q-29 0 -88 -27h-4q-6 0 -9.5 10.5zM324 291q0 -96 43 -158.5t103 -91.5t118 -29q108 0 168.5 92.5t60.5 260.5q0 182 -68.5 277t-183.5 95q-111 0 -241 -119v-327z" />
<glyph unicode="c" horiz-adv-x="849" d="M72 379q0 131 67.5 228.5t174 149.5t216.5 52q92 0 168 -38t76 -95q0 -31 -22.5 -53.5t-61.5 -22.5q-68 0 -102 80q-23 47 -49.5 67.5t-79.5 20.5q-106 0 -167 -89t-61 -237q0 -170 82 -278.5t252 -108.5q113 0 205 64h4q6 0 11.5 -6.5t-1.5 -10.5q-72 -66 -145.5 -96.5 t-163.5 -30.5q-133 0 -224 58.5t-135 150.5t-44 195z" />
<glyph unicode="d" horiz-adv-x="1048" d="M72 367q0 150 71.5 251t179 150t216.5 49q94 0 184 -43v443q0 76 -14.5 107.5t-51.5 31.5q-27 0 -88 -29h-2q-8 0 -12 10.5t2 14.5l272 131q4 2 11 2q6 0 15 -6t9 -15v-1235q0 -72 15.5 -103.5t52.5 -31.5q47 0 100 27l4 2q6 0 10.5 -10.5t-2.5 -14.5l-243 -116l-15 -5 q-25 0 -43 43t-20 119q-74 -76 -154 -121t-178 -45q-86 0 -159.5 48.5t-116.5 138.5t-43 207zM229 430q0 -172 71 -273.5t181 -101.5q70 0 127.5 32t114.5 89v469q-43 61 -99.5 94t-131.5 33q-123 0 -193 -86t-70 -256z" />
<glyph unicode="e" horiz-adv-x="841" d="M72 369q0 121 58 222t161.5 159.5t228.5 58.5q115 0 178.5 -54.5t63.5 -148.5q0 -51 -23 -51h-98l-403 -4q-8 -41 -9 -100q0 -176 85 -285t235 -109q119 0 209 64h2q6 0 11 -7.5t1 -13.5q-72 -66 -146.5 -95.5t-160.5 -29.5q-123 0 -212 54.5t-135 144.5t-46 195z M244 584l352 8q-2 82 -41 129t-106 47q-76 0 -129.5 -48t-75.5 -136z" />
<glyph unicode="f" horiz-adv-x="624" d="M47 749.5q0 14.5 6 14.5q80 0 110 19.5t32 72.5q10 334 122.5 482.5t335.5 148.5q109 0 174.5 -32t65.5 -81q0 -37 -24.5 -56.5t-57.5 -19.5t-52.5 15.5t-39.5 48.5q-27 43 -58.5 64.5t-80.5 21.5q-111 0 -176.5 -135t-65.5 -414v-131q129 6 252 20q6 0 10 -14t4 -33 q0 -16 -7 -34.5t-13 -16.5q-115 27 -246 31v-555q0 -63 13.5 -92t54 -39t129.5 -10q6 0 6 -12.5t-6 -12.5l-138 2q-43 2 -131 2l-119 -2q-31 -2 -86 -2q-6 0 -6 12.5t6 12.5q59 0 87 10t38.5 39.5t10.5 91.5v461q0 49 -10.5 71.5t-39 29.5t-94.5 7q-6 0 -6 14.5z" />
<glyph unicode="g" horiz-adv-x="899" d="M31 -334q0 78 54 155t171 159q-135 41 -135 141q0 55 41 111.5t112 99.5q-82 29 -128 91t-46 136q0 111 97.5 178.5t232.5 67.5q133 0 213 -64q115 68 221 68q6 0 9.5 -15.5t3.5 -33.5q0 -29 -6.5 -55.5t-14.5 -22.5q-80 33 -141 33q-12 0 -41 -4q55 -61 55 -144 q0 -72 -43 -130t-117.5 -92t-162.5 -34q-59 0 -105 13q-65 -44 -65 -115q0 -65 61 -91t180 -44q141 -23 213 -40.5t127 -66.5t55 -141q0 -98 -69.5 -192.5t-188 -153t-254.5 -58.5q-147 0 -238 69t-91 175zM176 -258q0 -121 75 -189.5t200 -68.5q137 0 215.5 73.5 t78.5 180.5q0 80 -49 123t-113.5 58t-187.5 34q-39 4 -96 16q-57 -43 -90 -96t-33 -131zM252 606q0 -115 58.5 -189.5t142.5 -74.5q53 0 89 44t36 136q0 109 -61.5 179.5t-143.5 70.5q-56 0 -88.5 -41t-32.5 -125z" />
<glyph unicode="h" horiz-adv-x="1028" d="M6 1339.5q-4 10.5 2 12.5l275 133h6q8 0 15 -6t7 -15v-823q150 172 316 172q113 0 174 -65.5t61 -186.5v-395q0 -86 24.5 -113.5t100.5 -27.5q6 0 6 -12.5t-6 -12.5q-51 0 -80 2l-112 2l-117 -2q-29 -2 -78 -2q-4 0 -4 12.5t4 12.5q76 0 99.5 27.5t23.5 113.5v315 q0 119 -44 175.5t-136 56.5q-59 0 -121 -30t-111 -81v-436q0 -86 24.5 -113.5t100.5 -27.5q6 0 6 -12.5t-6 -12.5q-51 0 -80 2l-112 2l-117 -2q-29 -2 -78 -2q-4 0 -4 12.5t4 12.5q76 0 99.5 27.5t23.5 113.5v1053q0 74 -13.5 105.5t-47.5 31.5q-37 0 -91 -27h-4 q-6 0 -10 10.5z" />
<glyph unicode="i" horiz-adv-x="552" d="M55.5 664.5q-4.5 11.5 3.5 13.5l279 129l8 2q6 0 13.5 -6t7.5 -15q0 -14 -2.5 -81.5t-2.5 -159.5v-381q0 -86 24 -113.5t99 -27.5q6 0 6.5 -12.5t-6.5 -12.5q-49 0 -79 2l-113 2l-113 -2q-31 -2 -80 -2q-6 0 -6 12.5t6 12.5q74 0 98.5 27.5t24.5 113.5v377 q0 74 -14 105.5t-51 31.5q-35 0 -88 -27h-2q-8 0 -12.5 11.5zM178 1137q0 45 27.5 70.5t75.5 25.5q45 0 70.5 -25.5t25.5 -70.5q0 -47 -25.5 -74t-70.5 -27q-48 0 -75.5 27t-27.5 74z" />
<glyph unicode="j" horiz-adv-x="530" d="M29 -555q100 43 141 137t41 273v688q0 74 -14.5 105.5t-49.5 31.5q-33 0 -88 -27h-2q-8 0 -13 11.5t3 13.5l281 129l6 2q8 0 14 -6t6 -15q0 -14 -2 -81.5t-2 -159.5v-645q0 -139 -28.5 -228.5t-96 -149t-186.5 -102.5q-4 -2 -9 9.5t-1 13.5zM164 1137q0 45 27.5 70.5 t75.5 25.5q45 0 70.5 -25.5t25.5 -70.5q0 -47 -25.5 -74t-70.5 -27q-48 0 -75.5 27t-27.5 74z" />
<glyph unicode="k" horiz-adv-x="1005" d="M6 1339.5q-4 10.5 2 12.5l271 131l10 2q8 0 15 -6t7 -15v-1058l248 212q61 53 62 93q0 25 -27 40t-78 15q-4 0 -4 12.5t4 12.5q57 0 90 -3l152 -2l139 2q29 2 78 3q4 0 4 -12.5t-4 -12.5q-80 0 -179.5 -39t-191.5 -117l-104 -86l266 -358q104 -141 233 -141q5 0 5 -12.5 t-5 -12.5q-51 0 -79 2l-115 2l-150 -2q-33 -2 -90 -2q-6 0 -6 12.5t6 12.5q92 0 92 41q0 18 -18 43l-244 329l-84 -69v-203q0 -86 24.5 -113.5t100.5 -27.5q6 0 6 -12.5t-6 -12.5q-51 0 -80 2l-112 2l-117 -2q-29 -2 -78 -2q-4 0 -4 12.5t4 12.5q76 0 99.5 27.5t23.5 113.5 v1053q0 74 -13.5 105.5t-47.5 31.5q-37 0 -91 -27h-4q-6 0 -10 10.5z" />
<glyph unicode="l" horiz-adv-x="534" d="M37 1339.5q-4 10.5 2 12.5l274 131l9 2q8 0 16 -6t8 -15v-1298q0 -86 23.5 -113.5t97.5 -27.5q8 0 8 -12.5t-8 -12.5q-47 0 -76 2l-119 2l-114 -2q-29 -2 -80 -2q-4 0 -4 12.5t4 12.5q76 0 99.5 27.5t23.5 113.5l2 1053q0 74 -14.5 105.5t-49.5 31.5t-88 -27h-4 q-6 0 -10 10.5z" />
<glyph unicode="m" horiz-adv-x="1572" d="M19.5 674q-3.5 10 3.5 12l253 121q4 2 13 2q20 0 39.5 -46t21.5 -120q141 170 301 170q92 0 149.5 -46t71.5 -134q150 180 312 180q109 0 167 -63.5t58 -188.5v-395q0 -59 9 -89t35 -41t79 -11q6 0 6 -12.5t-6 -12.5q-51 0 -80 2l-115 2l-112 -2q-31 -2 -80 -2 q-4 0 -4 12.5t4 12.5q76 0 100.5 27.5t24.5 113.5v315q0 119 -42 175.5t-128 56.5q-59 0 -118.5 -31t-104.5 -84v-27v-405q0 -86 23.5 -113.5t98.5 -27.5q6 0 6.5 -12.5t-6.5 -12.5q-49 0 -79 2l-113 2l-113 -2q-31 -2 -80 -2q-6 0 -6 12.5t6 12.5q74 0 98.5 27.5 t24.5 113.5v315q0 119 -41 175.5t-127 56.5q-57 0 -114.5 -29t-104.5 -80v-438q0 -86 23.5 -113.5t99.5 -27.5q6 0 6 -12.5t-6 -12.5q-49 0 -80 2l-112 2l-115 -2q-29 -2 -78 -2q-6 0 -6 12.5t6 12.5q74 0 97.5 27.5t23.5 113.5v399q0 68 -15.5 97.5t-52.5 29.5 q-39 0 -108 -28h-4q-6 0 -9.5 10z" />
<glyph unicode="n" horiz-adv-x="1064" d="M19.5 674q-3.5 10 3.5 12l253 121q4 2 13 2q20 0 39.5 -46t21.5 -120q150 174 314 174q113 0 175 -66.5t62 -185.5v-399q0 -86 23.5 -113.5t99.5 -27.5q6 0 6 -12.5t-6 -12.5q-49 0 -80 2l-113 2l-112 -2q-31 -2 -80 -2q-6 0 -6 12.5t6 12.5q74 0 97.5 27.5t23.5 113.5 v319q0 119 -43 174.5t-137 55.5q-57 0 -119 -29t-111 -80v-440q0 -86 23.5 -113.5t99.5 -27.5q6 0 6 -12.5t-6 -12.5q-49 0 -80 2l-112 2l-115 -2q-29 -2 -78 -2q-6 0 -6 12.5t6 12.5q74 0 97.5 27.5t23.5 113.5v399q0 68 -15.5 97.5t-52.5 29.5q-39 0 -108 -28h-4 q-6 0 -9.5 10z" />
<glyph unicode="o" horiz-adv-x="987" d="M72 406q0 133 65.5 226t168 139t208.5 46q121 0 213 -59.5t141.5 -156.5t49.5 -206q0 -125 -60.5 -221t-161 -148.5t-219.5 -52.5q-121 0 -213 58.5t-142 158t-50 216.5zM236 473q0 -129 38.5 -234.5t107.5 -166t155 -60.5q102 0 157.5 80t55.5 240q0 133 -40 234.5 t-110 155.5t-156 54q-100 0 -154 -76.5t-54 -226.5z" />
<glyph unicode="p" horiz-adv-x="1046" d="M-5 674q-5 10 3 12l248 119l12 4q25 0 44.5 -41t23.5 -113q162 162 329 162q86 0 159 -45t116 -131t43 -201q0 -158 -68.5 -263t-171 -154.5t-205.5 -49.5q-59 0 -105 9.5t-97 31.5v-411q0 -61 14 -90t55 -40.5t127 -11.5q6 0 6 -12t-6 -12q-72 0 -112 2l-154 2l-115 -2 q-29 -2 -80 -2q-6 0 -6 12t6 12q53 0 80 11.5t36 40t9 90.5v958q0 70 -16 101.5t-55 31.5t-105 -30h-2q-8 0 -13 10zM326 139q53 -59 112.5 -90t145.5 -31q106 0 169.5 93.5t63.5 265.5q0 168 -73.5 259t-188.5 91q-66 0 -120 -28.5t-109 -82.5v-477z" />
<glyph unicode="q" horiz-adv-x="1007" d="M72 352q0 156 65.5 260.5t168 154.5t214.5 50q145 0 279 -76l147 54l4 2q6 0 8.5 -9.5t-4.5 -11.5q-51 -29 -75.5 -68.5t-24.5 -103.5v-1001q0 -61 9 -90t36 -40.5t82 -11.5q4 0 4 -12t-4 -12q-53 0 -82 2l-115 2l-131 -2q-35 -2 -98 -2q-4 0 -4 12t4 12q70 0 103.5 11.5 t46 40t12.5 90.5v534q-72 -74 -147.5 -119t-172.5 -45q-88 0 -162.5 44t-118.5 130t-44 205zM231 424q0 -178 65.5 -274.5t178.5 -96.5q111 0 242 119v375q0 109 -74 169t-178 60q-233 0 -234 -352z" />
<glyph unicode="r" horiz-adv-x="755" d="M19.5 674q-3.5 10 3.5 12l253 121q4 2 13 2q20 0 39.5 -45t21.5 -119q84 94 134.5 129t95.5 35q47 0 88 -27.5t41 -66.5q0 -31 -20.5 -52.5t-55.5 -21.5q-20 0 -34.5 7t-25 16.5t-14.5 11.5q-16 16 -31.5 25.5t-38.5 9.5q-25 0 -53 -19.5t-86 -85.5v-440q0 -59 15.5 -89 t56.5 -41t123 -11q6 0 6 -12.5t-6 -12.5q-68 0 -109 2l-155 2l-115 -2q-29 -2 -78 -2q-6 0 -6 12.5t6 12.5q74 0 97.5 27.5t23.5 113.5v399q0 68 -15.5 97.5t-52.5 29.5q-39 0 -108 -28h-4q-6 0 -9.5 10z" />
<glyph unicode="s" horiz-adv-x="692" d="M94 236q0 6 11.5 7t13.5 -5q37 -102 103.5 -162t148.5 -60q57 0 89 29t32 84q0 57 -25 97t-60.5 63.5t-97.5 56.5q-68 33 -107.5 59.5t-67.5 69.5t-28 109q0 115 84 173t201 58q80 0 156 -31q18 -6 18 -22q0 -45 -2 -70l-2 -92q0 -4 -12 -4t-12 4q0 41 -33 82t-83 66.5 t-102 25.5q-47 0 -74.5 -23.5t-27.5 -76.5q0 -68 46 -111t132 -88q74 -39 114 -66.5t68.5 -70.5t28.5 -107q0 -104 -78.5 -179t-216.5 -75q-106 0 -200 60q-12 12 -13 24z" />
<glyph unicode="t" horiz-adv-x="692" d="M68 752q0 14 6 14q90 2 145 44t72 116q2 6 16.5 6t14.5 -6v-158q100 2 278 20q6 0 10 -14t4 -33q0 -18 -6 -35.5t-14 -15.5q-129 27 -272 31v-502q0 -82 40.5 -122t116.5 -40q90 0 162 60l4 2q8 0 12.5 -9.5t-2.5 -13.5q-76 -63 -139 -92t-133 -29q-86 0 -144.5 40 t-58.5 135v473q0 72 -19.5 92t-86.5 20q-6 0 -6 17z" />
<glyph unicode="u" horiz-adv-x="1017" d="M15.5 682q-3.5 10 2.5 12l242 113l8 2q8 0 16.5 -6t8.5 -15v-477q0 -231 172 -231q57 0 118.5 28.5t110.5 79.5v355q0 78 -14 111.5t-47 33.5q-27 0 -66 -16h-4q-6 0 -8 10t4 12l242 113l8 2q8 0 16.5 -6t8.5 -15v-563q0 -70 15 -100.5t52 -30.5q33 0 100 29h3 q8 0 12 -9.5t-2 -13.5l-254 -120q-4 -2 -10 -3q-18 0 -37 48.5t-19 126.5q-152 -170 -315 -170q-104 0 -164.5 66.5t-60.5 184.5v310q0 78 -14.5 111.5t-47.5 33.5q-29 0 -63 -16h-4q-6 0 -9.5 10z" />
<glyph unicode="v" horiz-adv-x="892" d="M-14 778.5q0 12.5 6 12.5q39 0 61 -3l97 -2l143 2q31 2 86 3q6 0 6 -12.5t-6 -12.5q-121 0 -121 -47q0 -16 8 -33l242 -498l176 424q14 43 14 64q0 90 -153 90q-4 0 -4 12.5t4 12.5q55 0 84 -3l123 -2l75 2q23 2 70 3q4 0 4 -12.5t-4 -12.5q-55 0 -94 -37t-74 -125 l-254 -602q-4 -10 -22 -10t-23 10l-297 619q-41 88 -70.5 116.5t-70.5 28.5q-6 0 -6 12.5z" />
<glyph unicode="w" horiz-adv-x="1382" d="M-14 778.5q0 12.5 6 12.5q39 0 61 -3l97 -2l133 2q31 2 84 3q6 0 6 -12.5t-6 -12.5q-115 0 -115 -47q0 -12 10 -33l246 -496l149 361l-32 70q-45 90 -70 117.5t-63 27.5q-4 0 -4.5 12.5t4.5 12.5q37 0 59 -3l90 -2l135 2q31 2 82 3q4 0 4 -12.5t-4 -12.5q-110 0 -110 -48 q0 -15 8 -32l243 -500l175 426q14 35 14 64q0 90 -152 90q-6 0 -6 12.5t6 12.5q55 0 82 -3l123 -2l78 2q20 2 67 3q7 0 7 -12.5t-7 -12.5q-53 0 -92 -37t-75 -125l-254 -602q-2 -8 -23 -8q-20 0 -22 8l-236 494l-209 -494q-2 -8 -22 -8t-23 8l-297 619q-41 88 -70.5 116.5 t-70.5 28.5q-6 0 -6 12.5z" />
<glyph unicode="x" horiz-adv-x="899" d="M16 12.5q0 12.5 4 12.5q57 0 123 43t121 120l125 174l-172 259q-47 74 -97 109.5t-89 35.5q-4 0 -4 12.5t4 12.5q43 0 63 -3l64 -2l137 2q29 2 82 3q4 0 4 -12.5t-4 -12.5q-31 0 -45.5 -6t-14.5 -21q0 -16 25 -53l135 -203l88 131q45 68 45 101q0 27 -26.5 39t-83.5 12 q-4 0 -4 12.5t4 12.5q55 0 84 -3l123 -2l75 2q23 2 70 3q4 0 4 -12.5t-4 -12.5q-57 0 -120.5 -42t-123.5 -122l-110 -151l186 -281q49 -76 101.5 -110.5t95.5 -34.5q4 0 4 -12.5t-4 -12.5l-68 2q-25 2 -70 2l-137 -2q-29 -2 -82 -2q-6 0 -6 12.5t6 12.5q61 0 62 26 q0 16 -25 53l-149 226l-107 -154q-43 -66 -43 -98q0 -53 109 -53q6 0 6 -12.5t-6 -12.5q-55 0 -82 2l-123 2l-76 -2q-23 -2 -70 -2q-4 0 -4 12.5z" />
<glyph unicode="y" horiz-adv-x="884" d="M-74 -489q0 35 21.5 54t52.5 19q27 0 43 -7t39 -19t36 -18.5t36 -6.5q49 0 91 41t89 136t112 270l-317 641q-47 90 -71.5 117.5t-63.5 27.5q-4 0 -4 12.5t4 12.5l76 -3q27 -2 73 -2l133 2q31 2 84 3q4 0 4.5 -12.5t-4.5 -12.5q-55 0 -83.5 -10.5t-28.5 -34.5 q0 -16 10 -35l260 -534l152 434q16 53 16 82q0 51 -36 74.5t-111 23.5q-4 0 -4 12.5t4 12.5q55 0 84 -3l122 -2l78 2q20 2 66 3q6 0 6 -12.5t-6 -12.5q-57 0 -97 -42t-73 -134l-244 -647q-74 -197 -141.5 -309.5t-138 -160.5t-158.5 -48q-49 0 -80 22.5t-31 63.5z" />
<glyph unicode="z" horiz-adv-x="829" d="M80 25l479 725q4 6 1 10t-11 4q-211 0 -311.5 -41t-135.5 -154q0 -4 -8 -4q-6 0 -11 3t-3 5l74 283q2 4 14 3t10 -5q-2 -8 -2 -20q0 -25 22.5 -34t77.5 -9h447q8 0 13 -8.5t3 -16.5l-479 -719q-6 -14 10 -14q176 0 265.5 16.5t133.5 60.5t70 136q2 4 12.5 4t10.5 -4 l-4 -223q0 -8 -5 -15.5t-14 -7.5h-645q-8 0 -13 8t-1 17z" />
<glyph unicode="{" horiz-adv-x="591" d="M59 623.5q0 13.5 7 13.5q90 12 119.5 133t29.5 313q0 176 23.5 259t84 113t189.5 30q8 0 8 -12.5t-8 -12.5q-68 0 -103.5 -56t-39.5 -161q-4 -252 -16.5 -353.5t-56.5 -159.5t-155 -105q109 -49 154 -109.5t57.5 -162t16.5 -351.5q4 -104 39.5 -160.5t103.5 -56.5 q8 0 8 -12.5t-8 -12.5q-129 0 -190.5 30t-84 114t-22.5 260q0 195 -29.5 314.5t-119.5 131.5q-7 0 -7 13.5z" />
<glyph unicode="|" horiz-adv-x="344" d="M133 -315v1812q0 14 43 14q41 0 41 -14v-1812q0 -8 -12 -12.5t-29 -4.5q-18 0 -30.5 4t-12.5 13z" />
<glyph unicode="}" horiz-adv-x="579" d="M59.5 -227.5q-0.5 12.5 8.5 12.5q68 0 103.5 56.5t39.5 160.5q4 250 16.5 351.5t57.5 161.5t153 110q-111 47 -154.5 105t-56 159.5t-16.5 353.5q-4 104 -40 160.5t-103 56.5q-8 0 -8.5 12.5t8.5 12.5q129 0 189 -30t84 -112.5t24 -259.5q0 -193 29.5 -313.5 t119.5 -132.5q6 0 6 -13.5t-6 -13.5q-90 -12 -119.5 -132t-29.5 -314q0 -176 -23 -260t-84 -114t-190 -30q-8 0 -8.5 12.5z" />
<glyph unicode="~" horiz-adv-x="907" d="M98 313q119 174 238 174q29 0 64.5 -10t70.5 -22q51 -20 91 -30.5t81 -10.5q57 0 88 20.5t66 59.5h2q6 0 11 -5.5t1 -9.5q-76 -104 -122 -139t-101 -35q-39 0 -73 9.5t-83 27.5q-55 18 -90 27.5t-76 9.5q-49 0 -75.5 -14.5t-48 -36l-29.5 -29.5h-2q-4 0 -9.5 5t-3.5 9z " />
<glyph unicode="&#xa1;" horiz-adv-x="516" d="M147 -541q39 174 58.5 383t34.5 496q0 8 22 8q20 0 21 -8q0 -18 4 -59q12 -264 29.5 -460t52.5 -360q2 -10 -34 -16t-77 -6t-77 6t-34 16zM170 647q0 47 25.5 74t72.5 27t74 -27t27 -74q0 -45 -27 -70.5t-74 -25.5t-72.5 25.5t-25.5 70.5z" />
<glyph unicode="&#xa2;" horiz-adv-x="1095" d="M70 483q0 129 63.5 237.5t176 176.5t253.5 82v170q0 8 7.5 12t17.5 4t17 -4t7 -12v-166h23q78 0 167 -15.5t144 -43.5q14 -6 18.5 -12.5t6.5 -22.5l16 -211q0 -6 -11 -8t-13 6q-96 266 -351 272v-938q12 -2 37 -2q119 0 201 67.5t131 211.5q2 8 13.5 6t11.5 -8l-23 -217 q-2 -16 -6 -22.5t-23 -14.5q-158 -55 -327 -56h-15v-184q0 -14 -24 -14q-25 0 -25 14v186q-172 14 -283.5 93.5t-160.5 190t-49 222.5zM248 514q0 -176 81 -319.5t234 -176.5v928q-141 -14 -228 -134t-87 -298z" />
<glyph unicode="&#xa3;" horiz-adv-x="884" d="M47 11.5q0 11.5 4 13.5q104 25 142 71.5t38 122.5q0 66 -9 118t-27 109h-93q-6 0 -10 7.5t-4 17.5t4 17.5t10 7.5h76q-18 55 -26.5 94t-8.5 86q0 156 103.5 231.5t257.5 75.5q92 0 184 -31q31 -12 33 -39l14 -208q0 -8 -10 -9q-12 0 -14 9q-35 111 -90.5 178t-147.5 67 q-94 0 -137 -59.5t-43 -145.5q0 -61 12 -111t39 -138h217q14 0 14 -25t-14 -25h-205q20 -76 21 -143q0 -76 -26.5 -126t-74.5 -87h238q90 0 134 12.5t66.5 47t39.5 108.5q0 4 8 4q6 0 11 -2t5 -6q-18 -102 -18 -223q0 -16 -7.5 -23.5t-23.5 -7.5h-678q-4 0 -4 11.5z" />
<glyph unicode="&#xa4;" horiz-adv-x="847" d="M100 698l64 60l104 -113q78 41 164 41t158 -45l102 111l51 -54l-100 -100q72 -78 72 -186q0 -104 -70 -179l100 -100l-65 -61l-100 110q-80 -49 -179 -49q-84 0 -147 41l-90 -102l-55 53l90 94q-35 39 -54.5 90t-19.5 105q0 106 76 182zM248 457q0 -111 49 -197t143 -86 q68 0 107 51t39 144q0 111 -54.5 193.5t-146.5 82.5q-63 0 -100 -48t-37 -140z" />
<glyph unicode="&#xa5;" horiz-adv-x="997" d="M-4 946q0 12 4 12l72 -2q49 -4 69 -4q61 0 168 4l111 2q4 0 4 -12t-4 -12q-94 0 -94 -45q0 -23 20 -51l213 -326l137 240q33 57 33 102q0 37 -23.5 58.5t-68.5 21.5q-6 0 -6 12t6 12l88 -2q74 -4 135 -4q29 0 66 4l57 2q6 0 6 -12t-6 -12q-131 0 -240 -184l-163 -279v-35 h202q14 0 15 -22q0 -25 -15 -25h-565q-14 0 -14 25q0 23 14 22h209l-227 352q-53 80 -97.5 113t-101.5 33q-4 0 -4 12zM203 285q0 23 14 22h565q15 1 15 -22q0 -25 -15 -25h-202v-94q0 -63 11 -92t46 -39t111 -10q4 0 4 -12.5t-4 -12.5q-63 0 -101 2l-145 2l-137 -2 q-41 -2 -111 -2q-4 0 -4 12.5t4 12.5q76 0 110.5 10t48 39.5t13.5 91.5v94h-209q-14 0 -14 25z" />
<glyph unicode="&#xa6;" horiz-adv-x="344" d="M133 -315v757q0 8 12.5 12.5t30.5 4.5q16 0 28.5 -4t12.5 -13v-757q0 -8 -12 -12.5t-29 -4.5q-18 0 -30.5 4t-12.5 13zM133 737v760q0 14 43 14q41 0 41 -14v-760q0 -6 -12 -10t-29 -4q-16 0 -29.5 4t-13.5 10z" />
<glyph unicode="&#xa7;" horiz-adv-x="933" d="M154 455q0 76 29.5 135t115.5 135q-80 80 -80 178q0 131 95.5 199.5t226.5 68.5q106 0 178 -38q23 -10 22 -33l17 -215q0 -4 -12.5 -4t-12.5 4q-12 45 -50 101t-95.5 97t-120.5 41q-55 0 -90 -35.5t-35 -109.5q0 -66 29.5 -116t73.5 -86t118 -85q86 -57 136.5 -100 t86 -107.5t35.5 -152.5q0 -76 -29.5 -135.5t-113.5 -133.5q84 -78 84 -180q0 -131 -95.5 -199.5t-226.5 -68.5q-104 0 -178 37q-23 14 -24 35l-15 213q0 6 11.5 6t13.5 -6q12 -45 50 -100.5t94.5 -96.5t119.5 -41q57 0 92 36t35 109q0 94 -56.5 155t-168.5 132 q-86 57 -137.5 100.5t-87 108t-35.5 152.5zM270 535q0 -91 37 -157.5t89.5 -109.5t140.5 -100q90 -57 118 -84q49 66 50 166q0 92 -36 158.5t-88.5 109.5t-138.5 98q-86 57 -120 89q-51 -63 -52 -170z" />
<glyph unicode="&#xa8;" horiz-adv-x="659" d="M57 1063q0 43 24.5 66.5t70.5 23.5q45 0 68.5 -23.5t23.5 -66.5q0 -45 -23.5 -69.5t-68.5 -24.5q-46 0 -70.5 24.5t-24.5 69.5zM416 1063q0 43 24.5 66.5t69.5 23.5t68.5 -23.5t23.5 -66.5q0 -45 -23.5 -69.5t-68.5 -24.5t-69.5 24.5t-24.5 69.5z" />
<glyph unicode="&#xa9;" horiz-adv-x="1478" d="M145 387q0 184 95.5 329.5t251 226.5t331.5 81q156 0 275 -64.5t183.5 -173t64.5 -235.5q0 -123 -68 -231.5t-185.5 -174t-263.5 -65.5q-127 0 -209.5 46t-121.5 118.5t-39 154.5q0 106 51 184.5t134 120t171 41.5q78 0 139.5 -29.5t63.5 -78.5q0 -31 -18.5 -50.5 t-49.5 -19.5q-47 0 -78 62q-27 39 -50 58.5t-66 19.5q-82 0 -116 -62.5t-34 -185.5q0 -141 74 -232.5t229 -91.5q88 0 166 41t125 121t47 192q0 133 -64.5 245t-176 177.5t-248.5 65.5q-156 0 -269.5 -73t-172 -195.5t-58.5 -272.5q0 -182 81 -314t211 -199.5t275 -67.5 q117 0 206 20.5t192 77.5q4 2 9 -5t-1 -11q-111 -86 -222.5 -117t-244.5 -31q-156 0 -298 69.5t-231.5 205t-89.5 323.5z" />
<glyph unicode="&#xaa;" horiz-adv-x="575" d="M66 616q0 10 3 19.5t5 9.5h461q4 0 7 -9t3 -20q0 -12 -3 -21t-7 -9h-459q-4 0 -7 10t-3 20zM66 827q0 35 23.5 57.5t84.5 43.5l184 65v109q0 94 -22.5 122.5t-63.5 28.5q-37 0 -59.5 -28.5t-30.5 -75.5q-8 -59 -57 -59q-27 0 -43 15t-16 38q0 33 45 67.5t107.5 57 t109.5 22.5q55 0 91 -36.5t36 -110.5v-240q0 -47 9 -67.5t30 -20.5q16 0 63 19h2q8 0 11 -7.5t-1 -11.5l-139 -65q-23 -10 -43 12t-27 67l-75 -41q-47 -25 -72 -32.5t-53 -7.5q-43 0 -68.5 22.5t-25.5 56.5zM178 860q0 -25 15.5 -41t39.5 -16q20 0 50 12l75 39v4v113 l-125 -49q-29 -10 -42 -24.5t-13 -37.5z" />
<glyph unicode="&#xab;" horiz-adv-x="946" d="M109 412q0 14 8 22l370 305q0 2 5 2q4 0 8 -5t2 -7l-232 -317l232 -318q2 -4 -5.5 -11t-9.5 -1l-370 305q-8 8 -8 25zM432 412q0 14 8 22l371 305q0 2 4 2t8 -5t2 -7l-231 -317l231 -318q2 -4 -5 -11t-9 -1l-371 305q-8 8 -8 25z" />
<glyph unicode="&#xac;" horiz-adv-x="808" d="M59 510q0 14 3.5 27.5t5.5 13.5h677v-393q0 -4 -14 -7.5t-31 -3.5q-14 0 -27.5 3.5t-13.5 5.5v309h-589q-4 0 -7.5 14.5t-3.5 30.5z" />
<glyph unicode="&#xad;" horiz-adv-x="661" d="M55 383q0 41 6 41l535 96q4 2 7 -12t3 -33q0 -16 -3 -30.5t-7 -16.5l-530 -96q-5 -2 -8 15.5t-3 35.5z" />
<glyph unicode="&#xae;" horiz-adv-x="1529" d="M145 870q0 178 92.5 318.5t245 218.5t328.5 78q174 0 306 -75t205 -203t73 -283q0 -176 -87 -323.5t-234.5 -232.5t-323.5 -85q-152 0 -291.5 70.5t-226.5 204.5t-87 312zM246 930q0 -178 81 -312.5t212 -206t274 -71.5q227 0 355 142.5t128 379.5q0 168 -71.5 299 t-197.5 204t-286 73q-162 0 -273.5 -70t-166.5 -184.5t-55 -253.5zM481 569.5q0 12.5 4 12.5q43 0 60.5 6t23.5 23.5t6 60.5v442q0 57 -15 73.5t-75 16.5q-4 0 -4 12.5t4 12.5l146 -2q25 0 90 4l78 2q193 0 192 -135q0 -59 -29.5 -105.5t-82.5 -72.5q63 -127 102 -192.5 t79 -102.5t93 -50q4 -2 4 -10t-4 -8h-174q-35 0 -197 332q-41 -8 -102 -8v-209q0 -59 17.5 -74.5t80.5 -15.5q4 0 4 -12.5t-4 -12.5q-37 0 -59 2l-88 2l-86 -2q-23 -2 -60 -2q-4 0 -4 12.5zM680 918q45 -5 61 -5q72 0 106 32t34 106q0 156 -117 155q-37 0 -53.5 -5 t-23.5 -25.5t-7 -67.5v-190z" />
<glyph unicode="&#xaf;" horiz-adv-x="706" d="M82 1016q0 31 14 31h514q8 0 12.5 -9.5t4.5 -21.5t-4.5 -22.5t-12.5 -10.5h-514q-14 0 -14 33z" />
<glyph unicode="&#xb0;" horiz-adv-x="679" d="M59 1030q0 109 79 184.5t204 75.5t202 -75.5t77 -188.5t-77 -187.5t-202 -74.5t-204 75.5t-79 190.5zM193 1036q0 -119 35.5 -183.5t127.5 -64.5q82 0 107.5 54.5t25.5 169.5q0 129 -38.5 191.5t-120.5 62.5q-80 0 -108.5 -58.5t-28.5 -171.5z" />
<glyph unicode="&#xb1;" horiz-adv-x="815" d="M59 43q0 14 3.5 25.5t5.5 11.5h677q5 0 8 -12.5t3 -26.5t-3 -26.5t-8 -12.5h-675q-4 0 -7.5 13.5t-3.5 27.5zM59 520q0 14 3.5 27.5t5.5 13.5h294v295q0 8 46 8q43 0 43 -8v-295h294q4 0 7.5 -13t3.5 -30q0 -16 -3 -30.5t-8 -14.5h-294v-293q0 -4 -15.5 -7t-32.5 -3 q-14 0 -27.5 3t-13.5 5v295h-292q-4 0 -7.5 15.5t-3.5 31.5z" />
<glyph unicode="&#xb2;" horiz-adv-x="514" d="M57 836q17 61 47.5 112t85.5 125q59 76 89 132.5t30 119.5q0 59 -25.5 90t-70.5 31q-47 0 -83 -32t-50 -83q0 -4 -8 -4q-6 0 -11.5 3t-3.5 7q45 156 199 156q82 0 125 -41t43 -106q0 -63 -41 -120t-121 -134q-57 -57 -88 -94t-43 -74q-2 -6 4 -6q137 0 191.5 6t76 25.5 t31.5 68.5q0 4 8.5 4t8.5 -4l-2 -184q0 -8 -9 -9h-377q-10 0 -6 11z" />
<glyph unicode="&#xb3;" horiz-adv-x="514" d="M45 952q-2 8 10.5 11.5t14.5 -5.5q16 -43 53 -72.5t92 -29.5q53 0 87 33t34 108q0 76 -41 118t-113 42q-8 0 -7 11.5t7 11.5q59 0 93 44t34 101q0 53 -27.5 85t-72.5 32t-81 -33t-46 -78q0 -4 -8 -4q-6 0 -12.5 3t-4.5 7q20 70 68.5 113t128.5 43t126 -42t46 -108 q0 -57 -37 -103t-92 -66q70 -15 113 -54t43 -104q0 -80 -58.5 -142.5t-158.5 -62.5q-145 0 -191 141z" />
<glyph unicode="&#xb4;" horiz-adv-x="434" d="M119 975l94 491q2 8 50 19.5t79 11.5q23 0 20 -8l-221 -518q0 -4 -8 -4q-6 0 -11 3t-3 5z" />
<glyph unicode="&#xb6;" horiz-adv-x="1320" d="M111 791q0 244 149.5 369.5t413.5 125.5q63 0 131 -6q25 0 77 -3t97 -3q41 0 119 4l106 2q4 0 4 -12.5t-4 -12.5q-88 0 -135 -43t-47 -122l2 -977q0 -266 -78 -387t-252 -121q-65 0 -104 27.5t-39 72.5q0 35 19.5 55.5t56.5 20.5q41 0 56 -17.5t28 -54.5q10 -31 22 -46 t41 -15q51 0 72.5 82t21.5 286v240q-63 -6 -139 -6q-158 0 -298 53t-230 174t-90 314z" />
<glyph unicode="&#xb7;" horiz-adv-x="399" d="M98 412q0 45 27 70.5t74 25.5t72.5 -25.5t25.5 -70.5q0 -47 -25.5 -74t-72.5 -27q-45 0 -73 28t-28 73z" />
<glyph unicode="&#xb8;" horiz-adv-x="475" d="M51 -479q0 27 20.5 47t49.5 20t42 -13t25 -40t26.5 -41t45.5 -14q63 0 64 69q0 53 -38 95.5t-136 95.5q-27 14 -27 27q0 8 10 34q31 74 60 154l16 43l29 -2q-21 -75 -21 -98q0 -33 18.5 -52.5t67.5 -48.5q51 -29 82 -65.5t31 -91.5q0 -80 -56.5 -141.5t-169.5 -61.5 q-63 0 -101 21.5t-38 62.5z" />
<glyph unicode="&#xb9;" horiz-adv-x="536" d="M62.5 1362q-5.5 10 3.5 12l249 117h4q6 0 11.5 -5t5.5 -9v-488q0 -70 7 -97.5t31.5 -35.5t88.5 -8q6 0 6 -11.5t-6 -11.5q-47 0 -74 2l-106 2l-113 -2q-29 -2 -80 -2q-4 0 -4 11.5t4 11.5q66 0 92.5 9t34.5 37t8 95v242q0 100 -5 130t-32 30q-16 0 -44.5 -11.5 t-65.5 -27.5h-2q-8 0 -13.5 10z" />
<glyph unicode="&#xba;" horiz-adv-x="651" d="M55 1020q0 88 43 148.5t108.5 91t135.5 30.5q78 0 136.5 -39t90 -102.5t31.5 -134.5q0 -76 -39 -140.5t-103.5 -101.5t-140.5 -37q-116 0 -189 83t-73 202zM70 616q0 10 3 19.5t5 9.5h497q4 0 7.5 -9t3.5 -20q0 -12 -3 -21t-8 -9h-495q-4 0 -7 10t-3 20zM166 1059 q0 -119 51 -206t131 -87q66 0 103.5 56.5t37.5 154.5q0 119 -53 199.5t-133 80.5q-66 0 -101.5 -51t-35.5 -147z" />
<glyph unicode="&#xbb;" horiz-adv-x="946" d="M121 94l231 316l-231 319q-2 4 5 10t9 0l371 -305q10 -10 10 -22q0 -14 -10 -25l-371 -305q0 -2 -4 -2t-8 5t-2 9zM444 94l232 316l-232 319q-2 4 5.5 10t9.5 0l370 -305q10 -10 11 -22q0 -14 -11 -25l-370 -305q0 -2 -4 -2t-8.5 5t-2.5 9z" />
<glyph unicode="&#xbc;" horiz-adv-x="1232" d="M62.5 1169.5q-5.5 10.5 3.5 12.5l249 116h4q6 0 11.5 -5t5.5 -9v-487q0 -70 7 -97.5t31.5 -36t88.5 -8.5q6 0 6 -11t-6 -11q-47 0 -74 2l-106 2l-113 -2q-29 -2 -80 -2q-4 0 -4 11t4 11q66 0 92.5 9.5t34.5 37t8 95.5v243q0 98 -5 128t-32 30t-110 -39h-2 q-8 0 -13.5 10.5zM326 23l571 1263q0 2 7 2q10 0 30.5 -10t18.5 -14l-574 -1264q0 -2 -4 -2q-10 0 -30.5 10t-18.5 15zM725 199q-4 6 2 10l326 450q4 6 18 7q8 0 15.5 -2t7.5 -7v-426l88 5q4 0 4 -27q0 -29 -4 -29l-88 4v-100q0 -29 4 -40t22.5 -16t61.5 -5q2 -5 2 -13 t-2 -12l-132 2l-167 -2q-2 0 -2 12.5t2 12.5q51 0 72.5 4t28.5 16t7 41v104q-139 4 -256 5q-6 0 -10 6zM801 229q-2 -6 4 -6q84 0 186 4v293z" />
<glyph unicode="&#xbd;" horiz-adv-x="1249" d="M62.5 1169.5q-5.5 10.5 3.5 12.5l249 116h4q6 0 11.5 -5t5.5 -9v-487q0 -70 7 -97.5t31.5 -36t88.5 -8.5q6 0 6 -11t-6 -11q-47 0 -74 2l-106 2l-113 -2q-29 -2 -80 -2q-4 0 -4 11t4 11q66 0 92.5 9.5t34.5 37t8 95.5v243q0 98 -5 128t-32 30t-110 -39h-2 q-8 0 -13.5 10.5zM326 23l571 1263q0 2 7 2q10 0 30.5 -10t18.5 -14l-574 -1264q0 -2 -4 -2q-10 0 -30.5 10t-18.5 15zM792 12q17 60 47.5 110t83.5 124q59 78 90 134t31 122q0 57 -25.5 86.5t-70.5 29.5q-47 0 -83 -30.5t-50 -79.5q0 -6 -8 -6q-6 0 -11.5 3t-3.5 7 q45 156 199 156q82 0 125 -40t43 -106q0 -61 -41 -117.5t-121 -140.5q-55 -53 -87 -91t-44 -75q-2 -6 4 -6q135 0 190.5 6t77 25.5t31.5 69.5q0 4 8.5 4t8.5 -4l-2 -183q0 -10 -9 -10h-377q-8 0 -6 12z" />
<glyph unicode="&#xbe;" horiz-adv-x="1210" d="M45 762q-2 6 10.5 9t14.5 -5q16 -43 53 -72.5t92 -29.5q53 0 87 32.5t34 106.5q0 76 -41 118t-113 42q-8 0 -7 12t7 12q59 0 93 44t34 102q0 53 -27.5 84.5t-72.5 31.5t-80 -32.5t-47 -75.5q0 -6 -10 -6q-6 0 -11.5 3t-3.5 7q20 70 68.5 112.5t128.5 42.5t126 -41.5 t46 -107.5q0 -57 -38 -103.5t-93 -66.5q72 -12 115 -52t43 -106q0 -80 -58.5 -141t-158.5 -61q-147 0 -191 141zM303 23l571 1263q0 2 7 2q10 0 30.5 -10t18.5 -14l-574 -1264q0 -2 -4 -2q-10 0 -30.5 10t-18.5 15zM703 199q-4 6 2 10l326 450q4 6 18 7q8 0 15.5 -2t7.5 -7 v-426l88 5q4 0 4 -27q0 -29 -4 -29l-88 4v-100q0 -29 4 -40t22.5 -16t61.5 -5q2 -5 2 -13t-2 -12l-132 2l-167 -2q-2 0 -2 12.5t2 12.5q51 0 72.5 4t28.5 16t7 41v104q-139 4 -256 5q-6 0 -10 6zM779 229q-2 -6 4 -6q84 0 186 4v293z" />
<glyph unicode="&#xbf;" horiz-adv-x="669" d="M47 -317q0 63 23.5 110t50 72.5t96.5 89.5q68 63 96.5 122.5t28.5 131.5q0 35 -10 110v3q0 4 12 7t14 -3q23 -53 38.5 -126t15.5 -120q0 -63 -23.5 -104.5t-71.5 -92.5q-51 -53 -77.5 -101t-26.5 -126q0 -84 35 -136t92 -52q43 0 58.5 24.5t21.5 67.5q6 47 24.5 76.5 t65.5 29.5q39 0 59.5 -23.5t20.5 -54.5q0 -63 -74 -107t-180 -44q-125 0 -207 63.5t-82 182.5zM266 639q0 47 25.5 73.5t73.5 26.5q47 0 73.5 -26.5t26.5 -73.5q0 -45 -26.5 -70.5t-73.5 -25.5t-73 25.5t-26 70.5z" />
<glyph unicode="&#xc0;" d="M-10 12.5q0 12.5 8 12.5q57 0 97 22.5t77 77.5t84 164l436 1005q2 6 14.5 7.5t14.5 -7.5l493 -1013q70 -150 119 -203t111 -53q8 0 8 -12.5t-8 -12.5q-39 0 -125 4q-82 4 -121 4q-47 0 -117 -4t-104 -4q-8 0 -8 12.5t8 12.5q70 0 100.5 13t30.5 48t-31 96l-229 475h-377 l-168 -387q-29 -68 -29 -112q0 -133 199 -133q10 0 10 -12.5t-10 -12.5q-37 0 -106 4q-78 4 -136 4q-53 0 -127 -4q-66 -4 -106 -4q-8 0 -8 12.5zM455 1548q-18 4 16.5 22.5t82.5 32.5t57 8q70 -45 104 -69q135 -92 203 -131q6 -2 6 -9q0 -6 -4 -10t-10 -2 q-230 103 -455 158zM489 705h336l-176 368z" />
<glyph unicode="&#xc1;" d="M-10 12.5q0 12.5 8 12.5q57 0 97 22.5t77 77.5t84 164l436 1005q2 6 14.5 7.5t14.5 -7.5l493 -1013q70 -150 119 -203t111 -53q8 0 8 -12.5t-8 -12.5q-39 0 -125 4q-82 4 -121 4q-47 0 -117 -4t-104 -4q-8 0 -8 12.5t8 12.5q70 0 100.5 13t30.5 48t-31 96l-229 475h-377 l-168 -387q-29 -68 -29 -112q0 -133 199 -133q10 0 10 -12.5t-10 -12.5q-37 0 -106 4q-78 4 -136 4q-53 0 -127 -4q-66 -4 -106 -4q-8 0 -8 12.5zM489 705h336l-176 368zM494 1397.5q-2 9.5 4 13.5q74 41 211 135q66 45 98 65q10 6 56.5 -8t82 -32.5t17.5 -22.5 q-127 -31 -232.5 -69t-222.5 -89l-4 -2q-8 0 -10 9.5z" />
<glyph unicode="&#xc2;" d="M-10 12.5q0 12.5 8 12.5q57 0 97 22.5t77 77.5t84 164l436 1005q2 6 14.5 7.5t14.5 -7.5l493 -1013q70 -150 119 -203t111 -53q8 0 8 -12.5t-8 -12.5q-39 0 -125 4q-82 4 -121 4q-47 0 -117 -4t-104 -4q-8 0 -8 12.5t8 12.5q70 0 100.5 13t30.5 48t-31 96l-229 475h-377 l-168 -387q-29 -68 -29 -112q0 -133 199 -133q10 0 10 -12.5t-10 -12.5q-37 0 -106 4q-78 4 -136 4q-53 0 -127 -4q-66 -4 -106 -4q-8 0 -8 12.5zM472 1341l210 211q10 10 23 11q14 0 25 -11l208 -211q2 0 3 -4q0 -4 -5.5 -8t-7.5 -2l-221 105l-223 -105q-4 -2 -10.5 5 t-1.5 9zM489 705h336l-176 368z" />
<glyph unicode="&#xc3;" d="M-10 12.5q0 12.5 8 12.5q57 0 97 22.5t77 77.5t84 164l436 1005q2 6 14.5 7.5t14.5 -7.5l493 -1013q70 -150 119 -203t111 -53q8 0 8 -12.5t-8 -12.5q-39 0 -125 4q-82 4 -121 4q-47 0 -117 -4t-104 -4q-8 0 -8 12.5t8 12.5q70 0 100.5 13t30.5 48t-31 96l-229 475h-377 l-168 -387q-29 -68 -29 -112q0 -133 199 -133q10 0 10 -12.5t-10 -12.5q-37 0 -106 4q-78 4 -136 4q-53 0 -127 -4q-66 -4 -106 -4q-8 0 -8 12.5zM438 1441q92 141 176 142q33 0 100 -23q10 -2 58.5 -15.5t95.5 -13.5q35 0 56.5 13.5t45.5 42.5h3q6 0 11 -5.5t1 -9.5 q-53 -82 -88 -110.5t-78 -28.5q-33 0 -72 10.5t-51 12.5q-80 27 -139 26q-39 0 -55.5 -11t-47.5 -44h-2q-6 0 -11 5t-3 9zM489 705h336l-176 368z" />
<glyph unicode="&#xc4;" d="M-10 12.5q0 12.5 8 12.5q57 0 97 22.5t77 77.5t84 164l436 1005q2 6 14.5 7.5t14.5 -7.5l493 -1013q70 -150 119 -203t111 -53q8 0 8 -12.5t-8 -12.5q-39 0 -125 4q-82 4 -121 4q-47 0 -117 -4t-104 -4q-8 0 -8 12.5t8 12.5q70 0 100.5 13t30.5 48t-31 96l-229 475h-377 l-168 -387q-29 -68 -29 -112q0 -133 199 -133q10 0 10 -12.5t-10 -12.5q-37 0 -106 4q-78 4 -136 4q-53 0 -127 -4q-66 -4 -106 -4q-8 0 -8 12.5zM434 1552q0 43 24.5 66.5t70.5 23.5q45 0 68.5 -23.5t23.5 -66.5q0 -45 -23.5 -69.5t-68.5 -24.5q-46 0 -70.5 24.5 t-24.5 69.5zM489 705h336l-176 368zM793 1552q0 43 24.5 66.5t69.5 23.5t68.5 -23.5t23.5 -66.5q0 -45 -23.5 -69.5t-68.5 -24.5t-69.5 24.5t-24.5 69.5z" />
<glyph unicode="&#xc5;" d="M-10 12.5q0 12.5 8 12.5q57 0 97 22.5t77 77.5t84 164l436 1005q2 6 14.5 7.5t14.5 -7.5l493 -1013q70 -150 119 -203t111 -53q8 0 8 -12.5t-8 -12.5q-39 0 -125 4q-82 4 -121 4q-47 0 -117 -4t-104 -4q-8 0 -8 12.5t8 12.5q70 0 100.5 13t30.5 48t-31 96l-229 475h-377 l-168 -387q-29 -68 -29 -112q0 -133 199 -133q10 0 10 -12.5t-10 -12.5q-37 0 -106 4q-78 4 -136 4q-53 0 -127 -4q-66 -4 -106 -4q-8 0 -8 12.5zM489 705h336l-176 368zM502 1520q0 74 65.5 115.5t147.5 41.5q78 0 134 -47t56 -114q0 -72 -64.5 -115t-146.5 -43 q-88 0 -140 48t-52 114zM612 1561q0 -68 31 -123.5t82 -55.5q35 0 52.5 22.5t17.5 74.5q0 72 -35 124t-86 52q-33 0 -47.5 -23.5t-14.5 -70.5z" />
<glyph unicode="&#xc6;" horiz-adv-x="1800" d="M-10 12.5q0 12.5 10 12.5q139 0 305 245l610 906q27 37 27 51q0 18 -34 23t-124 5q-4 0 -4 12.5t4 12.5h832q18 0 18 -18l4 -258q0 -6 -11 -7.5t-11 4.5q-10 90 -80 160t-164 70h-104q-88 0 -118 -24.5t-30 -94.5v-422h211q104 0 153.5 36t49.5 112q0 4 12.5 4t12.5 -4 l-3 -172q0 -61 3 -93l2 -102q0 -4 -12.5 -4t-12.5 4q0 88 -51 130t-158 42h-207v-469q0 -74 28 -100.5t109 -26.5h132q98 0 181 76t107 188q1 4 9 4q6 0 11 -3t5 -5q-18 -133 -19 -276q0 -16 -7 -23.5t-25 -7.5h-854q-4 0 -4 12.5t4 12.5q74 0 107.5 10t46 39.5t12.5 91.5 v477h-338l-252 -377q-59 -90 -60 -147q0 -94 158 -94q10 0 10 -12.5t-10 -12.5q-41 0 -115 4q-86 4 -149 4q-49 0 -115 -4q-57 -4 -92 -4q-10 0 -10 12.5zM655 690h308v461z" />
<glyph unicode="&#xc7;" horiz-adv-x="1370" d="M100 649q0 190 105.5 339t278.5 232t370 83q94 0 194.5 -17.5t159.5 -48.5q16 -8 21.5 -17.5t9.5 -31.5l23 -248q0 -6 -10.5 -7t-12.5 5q-53 160 -174 238.5t-291 78.5q-150 0 -260.5 -68.5t-168.5 -193.5t-58 -288q0 -190 73.5 -350t199.5 -253.5t276 -93.5 q295 0 421 338q1 6 9 6q6 0 11 -2t5 -6l-29 -248q-4 -25 -9 -32t-23 -15q-188 -74 -385 -74h-39q-14 -57 -15 -77q0 -33 18.5 -52.5t67.5 -48.5q51 -29 82 -65.5t31 -91.5q0 -80 -56.5 -141.5t-168.5 -61.5q-63 0 -101.5 21.5t-38.5 62.5q0 27 20.5 47t49.5 20t42 -13 t26 -40q12 -27 26.5 -41t44.5 -14q63 0 64 69q0 53 -38 95.5t-136 95.5q-27 14 -27 27q0 8 10 34q33 74 68 176q-223 14 -373.5 116t-221.5 249t-71 307z" />
<glyph unicode="&#xc8;" horiz-adv-x="1110" d="M82 12.5q0 12.5 6 12.5q74 0 106.5 10t45 39.5t12.5 91.5v948q0 61 -12.5 90t-46 40t-105.5 11q-6 0 -6 12.5t6 12.5h836q20 0 20 -18l4 -258q0 -6 -11 -7.5t-13 4.5q-14 113 -80 171.5t-172 58.5h-105q-90 0 -120.5 -25.5t-30.5 -99.5v-416h225q104 0 153.5 36t49.5 112 q0 4 11 4t11 -4l-2 -172l2 -93q4 -66 4 -102q0 -4 -12 -4t-12 4q0 88 -50.5 130t-160.5 42h-219v-469q0 -74 27.5 -100.5t111.5 -26.5h133q117 0 193.5 68.5t105.5 195.5q0 4 8 4q6 0 11.5 -3t5.5 -5q-20 -147 -21 -276q0 -16 -6 -23.5t-24 -7.5h-873q-6 0 -6 12.5z M350 1548q-18 4 16.5 22.5t82.5 32.5t57 8q70 -45 104 -69q135 -92 203 -131q6 -2 6 -9q0 -6 -4 -10t-10 -2q-230 103 -455 158z" />
<glyph unicode="&#xc9;" horiz-adv-x="1110" d="M82 12.5q0 12.5 6 12.5q74 0 106.5 10t45 39.5t12.5 91.5v948q0 61 -12.5 90t-46 40t-105.5 11q-6 0 -6 12.5t6 12.5h836q20 0 20 -18l4 -258q0 -6 -11 -7.5t-13 4.5q-14 113 -80 171.5t-172 58.5h-105q-90 0 -120.5 -25.5t-30.5 -99.5v-416h225q104 0 153.5 36t49.5 112 q0 4 11 4t11 -4l-2 -172l2 -93q4 -66 4 -102q0 -4 -12 -4t-12 4q0 88 -50.5 130t-160.5 42h-219v-469q0 -74 27.5 -100.5t111.5 -26.5h133q117 0 193.5 68.5t105.5 195.5q0 4 8 4q6 0 11.5 -3t5.5 -5q-20 -147 -21 -276q0 -16 -6 -23.5t-24 -7.5h-873q-6 0 -6 12.5z M389 1397.5q-2 9.5 4 13.5q74 41 211 135q66 45 98 65q10 6 56.5 -8t82 -32.5t17.5 -22.5q-127 -31 -232.5 -69t-222.5 -89l-4 -2q-8 0 -10 9.5z" />
<glyph unicode="&#xca;" horiz-adv-x="1110" d="M82 12.5q0 12.5 6 12.5q74 0 106.5 10t45 39.5t12.5 91.5v948q0 61 -12.5 90t-46 40t-105.5 11q-6 0 -6 12.5t6 12.5h836q20 0 20 -18l4 -258q0 -6 -11 -7.5t-13 4.5q-14 113 -80 171.5t-172 58.5h-105q-90 0 -120.5 -25.5t-30.5 -99.5v-416h225q104 0 153.5 36t49.5 112 q0 4 11 4t11 -4l-2 -172l2 -93q4 -66 4 -102q0 -4 -12 -4t-12 4q0 88 -50.5 130t-160.5 42h-219v-469q0 -74 27.5 -100.5t111.5 -26.5h133q117 0 193.5 68.5t105.5 195.5q0 4 8 4q6 0 11.5 -3t5.5 -5q-20 -147 -21 -276q0 -16 -6 -23.5t-24 -7.5h-873q-6 0 -6 12.5z M369 1423l211 213q10 10 25 10q12 0 22 -10l209 -213q2 0 2 -4t-5 -8t-7 -2l-221 106l-224 -106q-4 -2 -10 5t-2 9z" />
<glyph unicode="&#xcb;" horiz-adv-x="1110" d="M82 12.5q0 12.5 6 12.5q74 0 106.5 10t45 39.5t12.5 91.5v948q0 61 -12.5 90t-46 40t-105.5 11q-6 0 -6 12.5t6 12.5h836q20 0 20 -18l4 -258q0 -6 -11 -7.5t-13 4.5q-14 113 -80 171.5t-172 58.5h-105q-90 0 -120.5 -25.5t-30.5 -99.5v-416h225q104 0 153.5 36t49.5 112 q0 4 11 4t11 -4l-2 -172l2 -93q4 -66 4 -102q0 -4 -12 -4t-12 4q0 88 -50.5 130t-160.5 42h-219v-469q0 -74 27.5 -100.5t111.5 -26.5h133q117 0 193.5 68.5t105.5 195.5q0 4 8 4q6 0 11.5 -3t5.5 -5q-20 -147 -21 -276q0 -16 -6 -23.5t-24 -7.5h-873q-6 0 -6 12.5z M329 1552q0 43 24.5 66.5t70.5 23.5q45 0 68.5 -23.5t23.5 -66.5q0 -45 -23.5 -69.5t-68.5 -24.5q-46 0 -70.5 24.5t-24.5 69.5zM688 1552q0 43 24.5 66.5t69.5 23.5t68.5 -23.5t23.5 -66.5q0 -45 -23.5 -69.5t-68.5 -24.5t-69.5 24.5t-24.5 69.5z" />
<glyph unicode="&#xcc;" horiz-adv-x="686" d="M88 12.5q0 12.5 4 12.5q74 0 109 10t47 39.5t12 91.5v948q0 61 -12 90t-47 40t-109 11q-4 0 -4 12.5t4 12.5l107 -2q90 -4 143 -4q59 0 150 4l100 2q4 0 4 -12.5t-4 -12.5q-72 0 -106.5 -12t-47 -42t-12.5 -91v-944q0 -62 12.5 -91.5t46 -39.5t107.5 -10q4 0 4 -12.5 t-4 -12.5q-66 0 -103 2l-147 2l-143 -2q-39 -2 -107 -2q-4 0 -4 12.5zM92 1548q-18 4 16.5 22.5t82.5 32.5t57 8q70 -45 104 -69q135 -92 203 -131q6 -2 6 -9q0 -6 -4 -10t-10 -2q-230 103 -455 158z" />
<glyph unicode="&#xcd;" horiz-adv-x="686" d="M88 12.5q0 12.5 4 12.5q74 0 109 10t47 39.5t12 91.5v948q0 61 -12 90t-47 40t-109 11q-4 0 -4 12.5t4 12.5l107 -2q90 -4 143 -4q59 0 150 4l100 2q4 0 4 -12.5t-4 -12.5q-72 0 -106.5 -12t-47 -42t-12.5 -91v-944q0 -62 12.5 -91.5t46 -39.5t107.5 -10q4 0 4 -12.5 t-4 -12.5q-66 0 -103 2l-147 2l-143 -2q-39 -2 -107 -2q-4 0 -4 12.5zM131 1397.5q-2 9.5 4 13.5q74 41 211 135q66 45 98 65q10 6 56.5 -8t82 -32.5t17.5 -22.5q-127 -31 -232.5 -69t-222.5 -89l-4 -2q-8 0 -10 9.5z" />
<glyph unicode="&#xce;" horiz-adv-x="686" d="M88 12.5q0 12.5 4 12.5q74 0 109 10t47 39.5t12 91.5v948q0 61 -12 90t-47 40t-109 11q-4 0 -4 12.5t4 12.5l107 -2q90 -4 143 -4q59 0 150 4l100 2q4 0 4 -12.5t-4 -12.5q-72 0 -106.5 -12t-47 -42t-12.5 -91v-944q0 -62 12.5 -91.5t46 -39.5t107.5 -10q4 0 4 -12.5 t-4 -12.5q-66 0 -103 2l-147 2l-143 -2q-39 -2 -107 -2q-4 0 -4 12.5zM110 1423l211 213q10 10 25 10q12 0 22 -10l209 -213q2 0 2 -4t-5 -8t-7 -2l-221 106l-224 -106q-4 -2 -10 5t-2 9z" />
<glyph unicode="&#xcf;" horiz-adv-x="686" d="M88 12.5q0 12.5 4 12.5q74 0 109 10t47 39.5t12 91.5v948q0 61 -12 90t-47 40t-109 11q-4 0 -4 12.5t4 12.5l107 -2q90 -4 143 -4q59 0 150 4l100 2q4 0 4 -12.5t-4 -12.5q-72 0 -106.5 -12t-47 -42t-12.5 -91v-944q0 -62 12.5 -91.5t46 -39.5t107.5 -10q4 0 4 -12.5 t-4 -12.5q-66 0 -103 2l-147 2l-143 -2q-39 -2 -107 -2q-4 0 -4 12.5zM98 1552q0 43 26.5 66.5t69.5 23.5q45 0 69.5 -23.5t24.5 -66.5q0 -45 -24.5 -69.5t-69.5 -24.5q-43 0 -69.5 25.5t-26.5 68.5zM399 1552q0 43 25.5 66.5t68.5 23.5t67.5 -23.5t24.5 -66.5 q0 -45 -24.5 -69.5t-67.5 -24.5t-68.5 24.5t-25.5 69.5z" />
<glyph unicode="&#xd0;" horiz-adv-x="1425" d="M63.5 12.5q-0.5 12.5 4.5 12.5q74 0 108.5 10t47 39.5t12.5 91.5v448h-127q-8 0 -9 23q0 23 9 22h127v455q0 61 -12.5 90t-46.5 40t-105 11q-6 0 -6 12.5t6 12.5l102 -2q90 -4 143 -4q78 0 158 6q98 4 131 4q211 0 375 -82t254 -223t90 -317q0 -199 -93 -351.5 t-251 -235.5t-346 -83q-61 0 -141 6q-31 2 -76 4t-101 2l-143 -2q-39 -2 -106 -2q-4 0 -4.5 12.5zM399 188q0 -88 44 -123.5t171 -35.5q154 0 272 68.5t184.5 200.5t66.5 318q0 178 -62.5 322.5t-178.5 227.5t-269 83q-88 0 -135.5 -10t-70 -40t-22.5 -89v-451h279 q8 0 8 -22q0 -23 -8 -23h-279v-426z" />
<glyph unicode="&#xd1;" horiz-adv-x="1495" d="M66 1267.5q0 12.5 6 12.5l80 -2q25 -2 69 -2l107 2q18 2 47 2q16 0 23.5 -7t23.5 -32q18 -29 51 -67l762 -920v788q0 109 -39 161t-121 52q-4 0 -4 12.5t4 12.5l82 -2q61 -4 105 -4q37 0 106 4l86 2q6 0 6 -12.5t-6 -12.5q-168 0 -168 -213v-1069q0 -4 -9 -6t-13 2 l-961 1139v-872q0 -109 40 -160t122 -51q6 0 6 -12.5t-6 -12.5q-53 0 -82 2l-104 2l-111 -2q-31 -2 -90 -2q-4 0 -4 12.5t4 12.5q88 0 130 51t42 160v929q-90 90 -178 90q-6 0 -6 12.5zM506 1441q92 141 176 142q33 0 100 -23q10 -2 58.5 -15.5t95.5 -13.5q35 0 56.5 13.5 t45.5 42.5h3q6 0 11 -5.5t1 -9.5q-53 -82 -88 -110.5t-78 -28.5q-33 0 -72 10.5t-51 12.5q-80 27 -139 26q-39 0 -55.5 -11t-47.5 -44h-2q-6 0 -11 5t-3 9z" />
<glyph unicode="&#xd2;" horiz-adv-x="1568" d="M100 639q0 211 106.5 361.5t273.5 226.5t341 76q195 0 342.5 -91.5t226 -241t78.5 -317.5q0 -186 -98 -341.5t-263 -246t-357 -90.5q-191 0 -339.5 89.5t-229.5 242t-81 332.5zM287 711q0 -195 67.5 -352.5t189.5 -248t277 -90.5q131 0 235.5 68t165 198t60.5 310 q0 190 -66.5 339.5t-190.5 233.5t-288 84q-213 0 -331.5 -144t-118.5 -398zM539 1548q-18 4 16.5 22.5t82.5 32.5t57 8q70 -45 104 -69q135 -92 203 -131q6 -2 6 -9q0 -6 -4 -10t-10 -2q-230 103 -455 158z" />
<glyph unicode="&#xd3;" horiz-adv-x="1568" d="M100 639q0 211 106.5 361.5t273.5 226.5t341 76q195 0 342.5 -91.5t226 -241t78.5 -317.5q0 -186 -98 -341.5t-263 -246t-357 -90.5q-191 0 -339.5 89.5t-229.5 242t-81 332.5zM287 711q0 -195 67.5 -352.5t189.5 -248t277 -90.5q131 0 235.5 68t165 198t60.5 310 q0 190 -66.5 339.5t-190.5 233.5t-288 84q-213 0 -331.5 -144t-118.5 -398zM578 1397.5q-2 9.5 4 13.5q74 41 211 135q66 45 98 65q10 6 56.5 -8t82 -32.5t17.5 -22.5q-127 -31 -232.5 -69t-222.5 -89l-4 -2q-8 0 -10 9.5z" />
<glyph unicode="&#xd4;" horiz-adv-x="1568" d="M100 639q0 211 106.5 361.5t273.5 226.5t341 76q195 0 342.5 -91.5t226 -241t78.5 -317.5q0 -186 -98 -341.5t-263 -246t-357 -90.5q-191 0 -339.5 89.5t-229.5 242t-81 332.5zM287 711q0 -195 67.5 -352.5t189.5 -248t277 -90.5q131 0 235.5 68t165 198t60.5 310 q0 190 -66.5 339.5t-190.5 233.5t-288 84q-213 0 -331.5 -144t-118.5 -398zM557 1423l211 213q10 10 25 10q12 0 22 -10l209 -213q2 0 2 -4t-5 -8t-7 -2l-221 106l-224 -106q-4 -2 -10 5t-2 9z" />
<glyph unicode="&#xd5;" horiz-adv-x="1568" d="M100 639q0 211 106.5 361.5t273.5 226.5t341 76q195 0 342.5 -91.5t226 -241t78.5 -317.5q0 -186 -98 -341.5t-263 -246t-357 -90.5q-191 0 -339.5 89.5t-229.5 242t-81 332.5zM287 711q0 -195 67.5 -352.5t189.5 -248t277 -90.5q131 0 235.5 68t165 198t60.5 310 q0 190 -66.5 339.5t-190.5 233.5t-288 84q-213 0 -331.5 -144t-118.5 -398zM522 1441q92 141 176 142q33 0 100 -23q10 -2 58.5 -15.5t95.5 -13.5q35 0 56.5 13.5t45.5 42.5h3q6 0 11 -5.5t1 -9.5q-53 -82 -88 -110.5t-78 -28.5q-33 0 -72 10.5t-51 12.5q-80 27 -139 26 q-39 0 -55.5 -11t-47.5 -44h-2q-6 0 -11 5t-3 9z" />
<glyph unicode="&#xd6;" horiz-adv-x="1568" d="M100 639q0 211 106.5 361.5t273.5 226.5t341 76q195 0 342.5 -91.5t226 -241t78.5 -317.5q0 -186 -98 -341.5t-263 -246t-357 -90.5q-191 0 -339.5 89.5t-229.5 242t-81 332.5zM287 711q0 -195 67.5 -352.5t189.5 -248t277 -90.5q131 0 235.5 68t165 198t60.5 310 q0 190 -66.5 339.5t-190.5 233.5t-288 84q-213 0 -331.5 -144t-118.5 -398zM518 1552q0 43 24.5 66.5t70.5 23.5q45 0 68.5 -23.5t23.5 -66.5q0 -45 -23.5 -69.5t-68.5 -24.5q-46 0 -70.5 24.5t-24.5 69.5zM877 1552q0 43 24.5 66.5t69.5 23.5t68.5 -23.5t23.5 -66.5 q0 -45 -23.5 -69.5t-68.5 -24.5t-69.5 24.5t-24.5 69.5z" />
<glyph unicode="&#xd7;" horiz-adv-x="794" d="M125 178l211 211l-209 209q-6 6 24.5 36t34.5 25l211 -208l207 206q8 6 39 -24.5t23 -36.5l-207 -207l207 -207q8 -8 -23 -38.5t-39 -24.5l-207 209l-209 -209q-6 -8 -36.5 22.5t-26.5 36.5z" />
<glyph unicode="&#xd8;" horiz-adv-x="1591" d="M100 639q0 211 106.5 361.5t273.5 226.5t341 76q252 0 428 -156l144 145h4q8 0 22.5 -12t7.5 -18l-143 -148q88 -90 136 -211t48 -250q0 -186 -98 -341.5t-263 -246t-357 -90.5q-127 0 -238 41t-195 117l-147 -149l-2 -2q-8 0 -22.5 15t-8.5 21l146 148 q-88 90 -135.5 213t-47.5 260zM287 711q-1 -248 108 -430l756 766q-72 98 -178.5 152t-235.5 54q-213 0 -331.5 -144t-118.5 -398zM422 240q72 -104 174 -162t225 -58q131 0 235.5 68t165 198t60.5 310q0 242 -104 412z" />
<glyph unicode="&#xd9;" horiz-adv-x="1433" d="M55 1267.5q0 12.5 6 12.5l103 -2q90 -4 143 -4q57 0 148 4l98 2q6 0 6 -12.5t-6 -12.5q-72 0 -105.5 -12t-46 -42t-12.5 -91v-582q0 -242 105.5 -365.5t296.5 -123.5q178 0 279 111.5t101 312.5v579q0 105 -46 159t-136 54q-6 0 -6 12.5t6 12.5l92 -2q74 -4 117 -4 q37 0 107 4l88 2q4 0 4 -12.5t-4 -12.5q-166 0 -166 -213v-577q0 -229 -134.5 -360.5t-357.5 -131.5q-152 0 -266.5 58.5t-178 168t-63.5 257.5v657q0 61 -12 90t-46 40t-108 11q-6 0 -6 12.5zM514 1548q-18 4 16.5 22.5t82.5 32.5t57 8q70 -45 104 -69q135 -92 203 -131 q6 -2 6 -9q0 -6 -4 -10t-10 -2q-230 103 -455 158z" />
<glyph unicode="&#xda;" horiz-adv-x="1433" d="M55 1267.5q0 12.5 6 12.5l103 -2q90 -4 143 -4q57 0 148 4l98 2q6 0 6 -12.5t-6 -12.5q-72 0 -105.5 -12t-46 -42t-12.5 -91v-582q0 -242 105.5 -365.5t296.5 -123.5q178 0 279 111.5t101 312.5v579q0 105 -46 159t-136 54q-6 0 -6 12.5t6 12.5l92 -2q74 -4 117 -4 q37 0 107 4l88 2q4 0 4 -12.5t-4 -12.5q-166 0 -166 -213v-577q0 -229 -134.5 -360.5t-357.5 -131.5q-152 0 -266.5 58.5t-178 168t-63.5 257.5v657q0 61 -12 90t-46 40t-108 11q-6 0 -6 12.5zM553 1397.5q-2 9.5 4 13.5q74 41 211 135q66 45 98 65q10 6 56.5 -8t82 -32.5 t17.5 -22.5q-127 -31 -232.5 -69t-222.5 -89l-4 -2q-8 0 -10 9.5z" />
<glyph unicode="&#xdb;" horiz-adv-x="1433" d="M55 1267.5q0 12.5 6 12.5l103 -2q90 -4 143 -4q57 0 148 4l98 2q6 0 6 -12.5t-6 -12.5q-72 0 -105.5 -12t-46 -42t-12.5 -91v-582q0 -242 105.5 -365.5t296.5 -123.5q178 0 279 111.5t101 312.5v579q0 105 -46 159t-136 54q-6 0 -6 12.5t6 12.5l92 -2q74 -4 117 -4 q37 0 107 4l88 2q4 0 4 -12.5t-4 -12.5q-166 0 -166 -213v-577q0 -229 -134.5 -360.5t-357.5 -131.5q-152 0 -266.5 58.5t-178 168t-63.5 257.5v657q0 61 -12 90t-46 40t-108 11q-6 0 -6 12.5zM532 1423l211 213q10 10 25 10q12 0 22 -10l209 -213q2 0 2 -4t-5 -8t-7 -2 l-221 106l-224 -106q-4 -2 -10 5t-2 9z" />
<glyph unicode="&#xdc;" horiz-adv-x="1433" d="M55 1267.5q0 12.5 6 12.5l103 -2q90 -4 143 -4q57 0 148 4l98 2q6 0 6 -12.5t-6 -12.5q-72 0 -105.5 -12t-46 -42t-12.5 -91v-582q0 -242 105.5 -365.5t296.5 -123.5q178 0 279 111.5t101 312.5v579q0 105 -46 159t-136 54q-6 0 -6 12.5t6 12.5l92 -2q74 -4 117 -4 q37 0 107 4l88 2q4 0 4 -12.5t-4 -12.5q-166 0 -166 -213v-577q0 -229 -134.5 -360.5t-357.5 -131.5q-152 0 -266.5 58.5t-178 168t-63.5 257.5v657q0 61 -12 90t-46 40t-108 11q-6 0 -6 12.5zM493 1552q0 43 24.5 66.5t70.5 23.5q45 0 68.5 -23.5t23.5 -66.5 q0 -45 -23.5 -69.5t-68.5 -24.5q-46 0 -70.5 24.5t-24.5 69.5zM852 1552q0 43 24.5 66.5t69.5 23.5t68.5 -23.5t23.5 -66.5q0 -45 -23.5 -69.5t-68.5 -24.5t-69.5 24.5t-24.5 69.5z" />
<glyph unicode="&#xdd;" horiz-adv-x="1253" d="M-4 1267.5q0 12.5 6 12.5q23 0 72 -4l67 -2q68 0 187 4l118 2q4 0 4.5 -12.5t-4.5 -12.5q-96 0 -96 -49q0 -23 23 -57l315 -471l230 362q49 80 49 131q0 41 -29 62.5t-84 21.5q-6 0 -6 12.5t6 12.5l100 -2q82 -4 150 -4q35 0 84 4l76 2q4 0 4 -12.5t-4 -12.5 q-70 0 -151 -62.5t-144 -164.5l-254 -399v-463q0 -63 11 -92t45 -39t108 -10q6 0 6 -12.5t-6 -12.5q-63 0 -101 2l-147 2l-144 -2q-37 -2 -104 -2q-6 0 -6 12.5t6 12.5q74 0 108.5 10t47 39.5t12.5 91.5v428l-326 485q-66 98 -116 137t-107 39q-6 0 -6 12.5zM442 1397.5 q-2 9.5 4 13.5q74 41 211 135q66 45 98 65q10 6 56.5 -8t82 -32.5t17.5 -22.5q-127 -31 -232.5 -69t-222.5 -89l-4 -2q-8 0 -10 9.5z" />
<glyph unicode="&#xde;" horiz-adv-x="1107" d="M82 12.5q0 12.5 6 12.5q68 0 99.5 10t43 39.5t11.5 91.5v948q0 61 -11.5 90t-43 40t-99.5 11q-6 0 -6 12.5t6 12.5l100 -2q86 -4 138 -4q66 0 176 4l133 2q4 0 4 -12.5t-4 -12.5q-102 0 -149.5 -12t-63.5 -43t-16 -96v-94q98 12 188 12q201 0 321.5 -82t120.5 -266 q0 -131 -66.5 -222.5t-168 -135.5t-205.5 -44q-47 0 -102 11q-4 0 -5 10q0 6 3.5 12t7.5 4q49 -8 73 -8q119 0 200 89t81 257q0 164 -85 252t-226 88q-51 0 -137 -12v-801q0 -66 16 -95.5t63 -41.5t150 -12q4 0 4 -12.5t-4 -12.5q-86 0 -133 2l-176 2l-138 -2 q-37 -2 -100 -2q-6 0 -6 12.5z" />
<glyph unicode="&#xdf;" horiz-adv-x="1079" d="M33 12.5q0 12.5 6 12.5q59 0 87 10t38 39.5t10 91.5l-2 752q0 272 114.5 420.5t329.5 148.5q131 0 201 -58.5t70 -142.5q0 -68 -34 -119t-99 -114q-59 -57 -89 -100.5t-30 -96.5q0 -63 44 -121.5t140 -154.5q104 -104 154.5 -174t50.5 -152q0 -68 -37 -132.5 t-103.5 -104.5t-150.5 -40q-96 1 -182 60q-12 12 -12 24l-4 199q0 4 11 5t13 -3q41 -113 104.5 -178.5t127.5 -65.5q49 0 77.5 39t28.5 97q0 78 -44 140t-132 146q-92 92 -136 154.5t-44 144.5q0 57 21.5 102.5t66.5 110.5q49 68 75.5 125.5t26.5 132.5q0 96 -42 170 t-136 74q-117 0 -177.5 -141.5t-60.5 -399.5v-747q0 -61 9.5 -91t36 -40t81.5 -10q4 0 4 -12.5t-4 -12.5l-196 2l-207 -2q-6 0 -6 12.5z" />
<glyph unicode="&#xe0;" horiz-adv-x="860" d="M100 109q0 59 44 91.5t163 73.5l236 82v166q0 131 -32 187.5t-91 56.5q-63 0 -99 -46t-45 -120q-8 -90 -90 -90q-37 0 -57 18.5t-20 51.5q0 49 64.5 103t154.5 90t161 36q86 0 139.5 -56.5t53.5 -168.5v-363q0 -68 19.5 -100.5t60.5 -32.5q37 0 88 23h2q8 0 11 -9.5 t-5 -13.5l-211 -100q-8 -4 -18 -4q-27 0 -50.5 33.5t-31.5 93.5l-117 -64q-117 -61 -194 -61q-63 0 -99.5 33.5t-36.5 89.5zM224 1489q-3 8 20 8q33 0 80 -11t49 -20l92 -491q2 -4 -8 -7t-12 3zM270 160q0 -43 24.5 -67.5t63.5 -24.5q45 0 91 24l94 49v21v166l-181 -68 q-49 -18 -70.5 -41.5t-21.5 -58.5z" />
<glyph unicode="&#xe1;" horiz-adv-x="860" d="M100 109q0 59 44 91.5t163 73.5l236 82v166q0 131 -32 187.5t-91 56.5q-63 0 -99 -46t-45 -120q-8 -90 -90 -90q-37 0 -57 18.5t-20 51.5q0 49 64.5 103t154.5 90t161 36q86 0 139.5 -56.5t53.5 -168.5v-363q0 -68 19.5 -100.5t60.5 -32.5q37 0 88 23h2q8 0 11 -9.5 t-5 -13.5l-211 -100q-8 -4 -18 -4q-27 0 -50.5 33.5t-31.5 93.5l-117 -64q-117 -61 -194 -61q-63 0 -99.5 33.5t-36.5 89.5zM270 160q0 -43 24.5 -67.5t63.5 -24.5q45 0 91 24l94 49v21v166l-181 -68q-49 -18 -70.5 -41.5t-21.5 -58.5zM406 975l94 491q2 8 50 19.5t79 11.5 q23 0 20 -8l-221 -518q0 -4 -8 -4q-6 0 -11 3t-3 5z" />
<glyph unicode="&#xe2;" horiz-adv-x="860" d="M100 109q0 59 44 91.5t163 73.5l236 82v166q0 131 -32 187.5t-91 56.5q-63 0 -99 -46t-45 -120q-8 -90 -90 -90q-37 0 -57 18.5t-20 51.5q0 49 64.5 103t154.5 90t161 36q86 0 139.5 -56.5t53.5 -168.5v-363q0 -68 19.5 -100.5t60.5 -32.5q37 0 88 23h2q8 0 11 -9.5 t-5 -13.5l-211 -100q-8 -4 -18 -4q-27 0 -50.5 33.5t-31.5 93.5l-117 -64q-117 -61 -194 -61q-63 0 -99.5 33.5t-36.5 89.5zM270 160q0 -43 24.5 -67.5t63.5 -24.5q45 0 91 24l94 49v21v166l-181 -68q-49 -18 -70.5 -41.5t-21.5 -58.5zM270 975l139 510q0 10 23 10 q18 0 25 -10l137 -510q4 -4 -7.5 -7t-13.5 3l-139 301l-141 -301q0 -4 -8 -4q-6 0 -11.5 3t-3.5 5z" />
<glyph unicode="&#xe3;" horiz-adv-x="860" d="M100 109q0 59 44 91.5t163 73.5l236 82v166q0 131 -32 187.5t-91 56.5q-63 0 -99 -46t-45 -120q-8 -90 -90 -90q-37 0 -57 18.5t-20 51.5q0 49 64.5 103t154.5 90t161 36q86 0 139.5 -56.5t53.5 -168.5v-363q0 -68 19.5 -100.5t60.5 -32.5q37 0 88 23h2q8 0 11 -9.5 t-5 -13.5l-211 -100q-8 -4 -18 -4q-27 0 -50.5 33.5t-31.5 93.5l-117 -64q-117 -61 -194 -61q-63 0 -99.5 33.5t-36.5 89.5zM160 982q-4 5 0 9q92 137 174 137q29 0 102 -20q94 -29 152 -29q35 0 56.5 13.5t45.5 42.5h2q6 0 11.5 -5.5t1.5 -9.5q-53 -82 -88 -110.5 t-76 -28.5t-123 25q-8 2 -52 14t-89 12q-33 0 -51.5 -10t-32 -24.5t-19.5 -20.5h-4q-6 0 -10 5zM270 160q0 -43 24.5 -67.5t63.5 -24.5q45 0 91 24l94 49v21v166l-181 -68q-49 -18 -70.5 -41.5t-21.5 -58.5z" />
<glyph unicode="&#xe4;" horiz-adv-x="860" d="M100 109q0 59 44 91.5t163 73.5l236 82v166q0 131 -32 187.5t-91 56.5q-63 0 -99 -46t-45 -120q-8 -90 -90 -90q-37 0 -57 18.5t-20 51.5q0 49 64.5 103t154.5 90t161 36q86 0 139.5 -56.5t53.5 -168.5v-363q0 -68 19.5 -100.5t60.5 -32.5q37 0 88 23h2q8 0 11 -9.5 t-5 -13.5l-211 -100q-8 -4 -18 -4q-27 0 -50.5 33.5t-31.5 93.5l-117 -64q-117 -61 -194 -61q-63 0 -99.5 33.5t-36.5 89.5zM159 1063q0 43 24.5 66.5t70.5 23.5q45 0 68.5 -23.5t23.5 -66.5q0 -45 -23.5 -69.5t-68.5 -24.5q-46 0 -70.5 24.5t-24.5 69.5zM270 160 q0 -43 24.5 -67.5t63.5 -24.5q45 0 91 24l94 49v21v166l-181 -68q-49 -18 -70.5 -41.5t-21.5 -58.5zM518 1063q0 43 24.5 66.5t69.5 23.5t68.5 -23.5t23.5 -66.5q0 -45 -23.5 -69.5t-68.5 -24.5t-69.5 24.5t-24.5 69.5z" />
<glyph unicode="&#xe5;" horiz-adv-x="860" d="M100 109q0 59 44 91.5t163 73.5l236 82v166q0 131 -32 187.5t-91 56.5q-63 0 -99 -46t-45 -120q-8 -90 -90 -90q-37 0 -57 18.5t-20 51.5q0 49 64.5 103t154.5 90t161 36q86 0 139.5 -56.5t53.5 -168.5v-363q0 -68 19.5 -100.5t60.5 -32.5q37 0 88 23h2q8 0 11 -9.5 t-5 -13.5l-211 -100q-8 -4 -18 -4q-27 0 -50.5 33.5t-31.5 93.5l-117 -64q-117 -61 -194 -61q-63 0 -99.5 33.5t-36.5 89.5zM222 1120q0 74 66.5 117t146.5 43q78 0 135 -48t57 -116q0 -72 -65.5 -115t-147.5 -43q-88 0 -140 48.5t-52 113.5zM270 160q0 -43 24.5 -67.5 t63.5 -24.5q45 0 91 24l94 49v21v166l-181 -68q-49 -18 -70.5 -41.5t-21.5 -58.5zM332 1161q0 -70 32 -125t83 -55q67 0 67 98q0 72 -34.5 124t-85.5 52q-33 0 -47.5 -23.5t-14.5 -70.5z" />
<glyph unicode="&#xe6;" horiz-adv-x="1206" d="M82 586q0 45 53 98t132 89t151 36q70 0 124 -35t79 -94q59 61 137 95t166 34q109 0 167 -55.5t58 -155.5q0 -25 -6 -34t-23 -9h-116l-334 -4q-8 -43 -8 -111q4 -389 270 -389q131 0 211 70h2q6 0 12 -7.5t0 -13.5q-72 -68 -141.5 -96.5t-155.5 -28.5q-209 0 -291 148 l-153 -80q-59 -31 -103.5 -44t-85.5 -13q-63 0 -101 33.5t-38 91.5q0 57 42 86.5t163 72.5l219 72v6q-6 172 -15.5 253t-37 125t-86.5 44q-63 0 -92 -46t-33 -128q-6 -84 -82 -84q-84 0 -84 74zM262 162q0 -41 24.5 -66.5t65.5 -25.5q47 0 84 16l119 61q-33 70 -41 168 l-166 -61q-47 -16 -66.5 -37.5t-19.5 -54.5zM676 584l305 8q-2 84 -36 130t-89 46q-68 0 -114 -48t-66 -136z" />
<glyph unicode="&#xe7;" horiz-adv-x="849" d="M72 379q0 131 67.5 228.5t174 149.5t216.5 52q92 0 168 -38t76 -95q0 -31 -22.5 -53.5t-61.5 -22.5q-68 0 -102 80q-23 47 -49.5 67.5t-79.5 20.5q-106 0 -167 -89t-61 -237q0 -170 82 -278.5t252 -108.5q113 0 205 64h4q6 0 11.5 -6.5t-1.5 -10.5q-72 -66 -145.5 -96.5 t-163.5 -30.5h-12q-14 -57 -14 -77q0 -33 18 -52.5t68 -48.5q51 -29 81.5 -65.5t30.5 -91.5q0 -80 -56 -141.5t-169 -61.5q-63 0 -101 21.5t-38 62.5q0 27 20.5 47t48.5 20q29 0 42.5 -13t25.5 -40t26.5 -41t45.5 -14q63 0 63 69q0 53 -38 95.5t-136 95.5q-27 14 -27 27 q0 8 11 34q33 74 67 176q-119 10 -200.5 69.5t-120.5 148t-39 184.5z" />
<glyph unicode="&#xe8;" horiz-adv-x="841" d="M72 369q0 121 58 222t161.5 159.5t228.5 58.5q115 0 178.5 -54.5t63.5 -148.5q0 -51 -23 -51h-98l-403 -4q-8 -41 -9 -100q0 -176 85 -285t235 -109q119 0 209 64h2q6 0 11 -7.5t1 -13.5q-72 -66 -146.5 -95.5t-160.5 -29.5q-123 0 -212 54.5t-135 144.5t-46 195z M244 584l352 8q-2 82 -41 129t-106 47q-76 0 -129.5 -48t-75.5 -136zM262 1489q-3 8 20 8q33 0 80 -11t49 -20l92 -491q2 -4 -8 -7t-12 3z" />
<glyph unicode="&#xe9;" horiz-adv-x="841" d="M72 369q0 121 58 222t161.5 159.5t228.5 58.5q115 0 178.5 -54.5t63.5 -148.5q0 -51 -23 -51h-98l-403 -4q-8 -41 -9 -100q0 -176 85 -285t235 -109q119 0 209 64h2q6 0 11 -7.5t1 -13.5q-72 -66 -146.5 -95.5t-160.5 -29.5q-123 0 -212 54.5t-135 144.5t-46 195z M244 584l352 8q-2 82 -41 129t-106 47q-76 0 -129.5 -48t-75.5 -136zM445 975l94 491q2 8 50 19.5t79 11.5q23 0 20 -8l-221 -518q0 -4 -8 -4q-6 0 -11 3t-3 5z" />
<glyph unicode="&#xea;" horiz-adv-x="841" d="M72 369q0 121 58 222t161.5 159.5t228.5 58.5q115 0 178.5 -54.5t63.5 -148.5q0 -51 -23 -51h-98l-403 -4q-8 -41 -9 -100q0 -176 85 -285t235 -109q119 0 209 64h2q6 0 11 -7.5t1 -13.5q-72 -66 -146.5 -95.5t-160.5 -29.5q-123 0 -212 54.5t-135 144.5t-46 195z M244 584l352 8q-2 82 -41 129t-106 47q-76 0 -129.5 -48t-75.5 -136zM309 975l139 510q2 10 23 10q23 0 24 -10l137 -510q4 -4 -7 -7t-13 3l-139 301l-142 -301q0 -4 -8 -4q-6 0 -11 3t-3 5z" />
<glyph unicode="&#xeb;" horiz-adv-x="841" d="M72 369q0 121 58 222t161.5 159.5t228.5 58.5q115 0 178.5 -54.5t63.5 -148.5q0 -51 -23 -51h-98l-403 -4q-8 -41 -9 -100q0 -176 85 -285t235 -109q119 0 209 64h2q6 0 11 -7.5t1 -13.5q-72 -66 -146.5 -95.5t-160.5 -29.5q-123 0 -212 54.5t-135 144.5t-46 195z M198 1063q0 43 24.5 66.5t70.5 23.5q45 0 68.5 -23.5t23.5 -66.5q0 -45 -23.5 -69.5t-68.5 -24.5q-46 0 -70.5 24.5t-24.5 69.5zM244 584l352 8q-2 82 -41 129t-106 47q-76 0 -129.5 -48t-75.5 -136zM557 1063q0 43 24.5 66.5t69.5 23.5t68.5 -23.5t23.5 -66.5 q0 -45 -23.5 -69.5t-68.5 -24.5t-69.5 24.5t-24.5 69.5z" />
<glyph unicode="&#xec;" horiz-adv-x="552" d="M55.5 664.5q-4.5 11.5 3.5 13.5l279 129l8 2q6 0 13.5 -6t7.5 -15q0 -14 -2.5 -81.5t-2.5 -159.5v-381q0 -86 24 -113.5t99 -27.5q6 0 6.5 -12.5t-6.5 -12.5q-49 0 -79 2l-113 2l-113 -2q-31 -2 -80 -2q-6 0 -6 12.5t6 12.5q74 0 98.5 27.5t24.5 113.5v377 q0 74 -14 105.5t-51 31.5q-35 0 -88 -27h-2q-8 0 -12.5 11.5zM72 1489q-3 8 20 8q33 0 80 -11t49 -20l92 -491q2 -4 -8 -7t-12 3z" />
<glyph unicode="&#xed;" horiz-adv-x="552" d="M55.5 664.5q-4.5 11.5 3.5 13.5l279 129l8 2q6 0 13.5 -6t7.5 -15q0 -14 -2.5 -81.5t-2.5 -159.5v-381q0 -86 24 -113.5t99 -27.5q6 0 6.5 -12.5t-6.5 -12.5q-49 0 -79 2l-113 2l-113 -2q-31 -2 -80 -2q-6 0 -6 12.5t6 12.5q74 0 98.5 27.5t24.5 113.5v377 q0 74 -14 105.5t-51 31.5q-35 0 -88 -27h-2q-8 0 -12.5 11.5zM254 975l94 491q2 8 50 19.5t79 11.5q23 0 20 -8l-221 -518q0 -4 -8 -4q-6 0 -11 3t-3 5z" />
<glyph unicode="&#xee;" horiz-adv-x="552" d="M55.5 664.5q-4.5 11.5 3.5 13.5l279 129l8 2q6 0 13.5 -6t7.5 -15q0 -14 -2.5 -81.5t-2.5 -159.5v-381q0 -86 24 -113.5t99 -27.5q6 0 6.5 -12.5t-6.5 -12.5q-49 0 -79 2l-113 2l-113 -2q-31 -2 -80 -2q-6 0 -6 12.5t6 12.5q74 0 98.5 27.5t24.5 113.5v377 q0 74 -14 105.5t-51 31.5q-35 0 -88 -27h-2q-8 0 -12.5 11.5zM119 975l139 510q2 10 23 10q23 0 24 -10l137 -510q4 -4 -7 -7t-13 3l-139 301l-142 -301q0 -4 -8 -4q-6 0 -11 3t-3 5z" />
<glyph unicode="&#xef;" horiz-adv-x="552" d="M35 1063q0 43 26.5 66.5t69.5 23.5q45 0 69.5 -23.5t24.5 -66.5q0 -45 -24.5 -69.5t-69.5 -24.5q-43 0 -69.5 25.5t-26.5 68.5zM55.5 664.5q-4.5 11.5 3.5 13.5l279 129l8 2q6 0 13.5 -6t7.5 -15q0 -14 -2.5 -81.5t-2.5 -159.5v-381q0 -86 24 -113.5t99 -27.5 q6 0 6.5 -12.5t-6.5 -12.5q-49 0 -79 2l-113 2l-113 -2q-31 -2 -80 -2q-6 0 -6 12.5t6 12.5q74 0 98.5 27.5t24.5 113.5v377q0 74 -14 105.5t-51 31.5q-35 0 -88 -27h-2q-8 0 -12.5 11.5zM336 1063q0 43 25.5 66.5t68.5 23.5t67.5 -23.5t24.5 -66.5q0 -45 -24.5 -69.5 t-67.5 -24.5t-68.5 24.5t-25.5 69.5z" />
<glyph unicode="&#xf0;" horiz-adv-x="962" d="M53 381q0 141 67.5 239.5t169 147.5t202.5 49q106 0 198 -57q-59 195 -166 358l-268 -127q-10 -4 -19.5 20.5t-0.5 30.5l258 123q-137 190 -310 301q-4 4 -4 7q0 4 5 9t12 3q225 -104 389 -277l211 101h2q10 0 19 -23.5t-1 -28.5l-190 -90q135 -153 208.5 -336.5 t73.5 -365.5q0 -248 -127 -370t-325 -122q-121 0 -212 55.5t-141.5 149.5t-50.5 203zM215 440q0 -117 37 -214t105.5 -154.5t156.5 -57.5q113 0 172 85t59 292q0 113 -22 232q-43 74 -108.5 113.5t-143.5 39.5q-113 0 -184.5 -88t-71.5 -248z" />
<glyph unicode="&#xf1;" horiz-adv-x="1064" d="M19.5 674q-3.5 10 3.5 12l253 121q4 2 13 2q20 0 39.5 -46t21.5 -120q150 174 314 174q113 0 175 -66.5t62 -185.5v-399q0 -86 23.5 -113.5t99.5 -27.5q6 0 6 -12.5t-6 -12.5q-49 0 -80 2l-113 2l-112 -2q-31 -2 -80 -2q-6 0 -6 12.5t6 12.5q74 0 97.5 27.5t23.5 113.5 v319q0 119 -43 174.5t-137 55.5q-57 0 -119 -29t-111 -80v-440q0 -86 23.5 -113.5t99.5 -27.5q6 0 6 -12.5t-6 -12.5q-49 0 -80 2l-112 2l-115 -2q-29 -2 -78 -2q-6 0 -6 12.5t6 12.5q74 0 97.5 27.5t23.5 113.5v399q0 68 -15.5 97.5t-52.5 29.5q-39 0 -108 -28h-4 q-6 0 -9.5 10zM287 982q-4 5 0 9q92 137 174 137q29 0 102 -20q94 -29 152 -29q35 0 56.5 13.5t45.5 42.5h2q6 0 11.5 -5.5t1.5 -9.5q-53 -82 -88 -110.5t-76 -28.5t-123 25q-8 2 -52 14t-89 12q-33 0 -51.5 -10t-32 -24.5t-19.5 -20.5h-4q-6 0 -10 5z" />
<glyph unicode="&#xf2;" horiz-adv-x="987" d="M72 406q0 133 65.5 226t168 139t208.5 46q121 0 213 -59.5t141.5 -156.5t49.5 -206q0 -125 -60.5 -221t-161 -148.5t-219.5 -52.5q-121 0 -213 58.5t-142 158t-50 216.5zM236 473q0 -129 38.5 -234.5t107.5 -166t155 -60.5q102 0 157.5 80t55.5 240q0 133 -40 234.5 t-110 155.5t-156 54q-100 0 -154 -76.5t-54 -226.5zM287 1489q-3 8 20 8q33 0 80 -11t49 -20l92 -491q2 -4 -8 -7t-12 3z" />
<glyph unicode="&#xf3;" horiz-adv-x="987" d="M72 406q0 133 65.5 226t168 139t208.5 46q121 0 213 -59.5t141.5 -156.5t49.5 -206q0 -125 -60.5 -221t-161 -148.5t-219.5 -52.5q-121 0 -213 58.5t-142 158t-50 216.5zM236 473q0 -129 38.5 -234.5t107.5 -166t155 -60.5q102 0 157.5 80t55.5 240q0 133 -40 234.5 t-110 155.5t-156 54q-100 0 -154 -76.5t-54 -226.5zM469 975l94 491q2 8 50 19.5t79 11.5q23 0 20 -8l-221 -518q0 -4 -8 -4q-6 0 -11 3t-3 5z" />
<glyph unicode="&#xf4;" horiz-adv-x="987" d="M72 406q0 133 65.5 226t168 139t208.5 46q121 0 213 -59.5t141.5 -156.5t49.5 -206q0 -125 -60.5 -221t-161 -148.5t-219.5 -52.5q-121 0 -213 58.5t-142 158t-50 216.5zM236 473q0 -129 38.5 -234.5t107.5 -166t155 -60.5q102 0 157.5 80t55.5 240q0 133 -40 234.5 t-110 155.5t-156 54q-100 0 -154 -76.5t-54 -226.5zM334 975l139 510q2 10 23 10q23 0 24 -10l137 -510q4 -4 -7 -7t-13 3l-139 301l-142 -301q0 -4 -8 -4q-6 0 -11 3t-3 5z" />
<glyph unicode="&#xf5;" horiz-adv-x="987" d="M72 406q0 133 65.5 226t168 139t208.5 46q121 0 213 -59.5t141.5 -156.5t49.5 -206q0 -125 -60.5 -221t-161 -148.5t-219.5 -52.5q-121 0 -213 58.5t-142 158t-50 216.5zM223 982q-4 5 0 9q92 137 174 137q29 0 102 -20q94 -29 152 -29q35 0 56.5 13.5t45.5 42.5h2 q6 0 11.5 -5.5t1.5 -9.5q-53 -82 -88 -110.5t-76 -28.5t-123 25q-8 2 -52 14t-89 12q-33 0 -51.5 -10t-32 -24.5t-19.5 -20.5h-4q-6 0 -10 5zM236 473q0 -129 38.5 -234.5t107.5 -166t155 -60.5q102 0 157.5 80t55.5 240q0 133 -40 234.5t-110 155.5t-156 54 q-100 0 -154 -76.5t-54 -226.5z" />
<glyph unicode="&#xf6;" horiz-adv-x="987" d="M72 406q0 133 65.5 226t168 139t208.5 46q121 0 213 -59.5t141.5 -156.5t49.5 -206q0 -125 -60.5 -221t-161 -148.5t-219.5 -52.5q-121 0 -213 58.5t-142 158t-50 216.5zM223 1063q0 43 24.5 66.5t70.5 23.5q45 0 68.5 -23.5t23.5 -66.5q0 -45 -23.5 -69.5t-68.5 -24.5 q-46 0 -70.5 24.5t-24.5 69.5zM236 473q0 -129 38.5 -234.5t107.5 -166t155 -60.5q102 0 157.5 80t55.5 240q0 133 -40 234.5t-110 155.5t-156 54q-100 0 -154 -76.5t-54 -226.5zM582 1063q0 43 24.5 66.5t69.5 23.5t68.5 -23.5t23.5 -66.5q0 -45 -23.5 -69.5t-68.5 -24.5 t-69.5 24.5t-24.5 69.5z" />
<glyph unicode="&#xf7;" horiz-adv-x="815" d="M59 391q0 14 3.5 27.5t5.5 13.5h677q4 0 7.5 -13t3.5 -30q0 -16 -3 -30.5t-8 -14.5h-675q-4 0 -7.5 15.5t-3.5 31.5zM305 78q0 45 26.5 70.5t74.5 25.5q45 0 71.5 -25.5t26.5 -70.5q0 -47 -26.5 -74t-71.5 -27q-46 0 -73.5 28t-27.5 73zM305 713q0 45 26.5 69.5 t74.5 24.5q47 0 72.5 -24.5t25.5 -69.5q0 -47 -25.5 -74t-72.5 -27q-48 0 -74.5 27t-26.5 74z" />
<glyph unicode="&#xf8;" horiz-adv-x="976" d="M72 406q0 133 65.5 226t168 139t208.5 46q150 0 258 -94l92 94l4 2q10 0 23.5 -13t7.5 -20l-92 -96q53 -59 82 -136t29 -159q0 -125 -60.5 -221t-161 -148.5t-219.5 -52.5q-158 0 -268 101l-100 -105l-3 -2q-10 0 -24 15.5t-8 21.5l102 105q-51 57 -77.5 135t-26.5 162z M236 473q0 -143 47 -254l397 408q-41 72 -102.5 110.5t-133.5 38.5q-100 0 -154 -76.5t-54 -226.5zM303 172q43 -76 102.5 -118t131.5 -42q102 0 157.5 80t55.5 240q0 145 -48 252z" />
<glyph unicode="&#xf9;" horiz-adv-x="1017" d="M15.5 682q-3.5 10 2.5 12l242 113l8 2q8 0 16.5 -6t8.5 -15v-477q0 -231 172 -231q57 0 118.5 28.5t110.5 79.5v355q0 78 -14 111.5t-47 33.5q-27 0 -66 -16h-4q-6 0 -8 10t4 12l242 113l8 2q8 0 16.5 -6t8.5 -15v-563q0 -70 15 -100.5t52 -30.5q33 0 100 29h3 q8 0 12 -9.5t-2 -13.5l-254 -120q-4 -2 -10 -3q-18 0 -37 48.5t-19 126.5q-152 -170 -315 -170q-104 0 -164.5 66.5t-60.5 184.5v310q0 78 -14.5 111.5t-47.5 33.5q-29 0 -63 -16h-4q-6 0 -9.5 10zM291 1489q-3 8 20 8q33 0 80 -11t49 -20l92 -491q2 -4 -8 -7t-12 3z" />
<glyph unicode="&#xfa;" horiz-adv-x="1017" d="M15.5 682q-3.5 10 2.5 12l242 113l8 2q8 0 16.5 -6t8.5 -15v-477q0 -231 172 -231q57 0 118.5 28.5t110.5 79.5v355q0 78 -14 111.5t-47 33.5q-27 0 -66 -16h-4q-6 0 -8 10t4 12l242 113l8 2q8 0 16.5 -6t8.5 -15v-563q0 -70 15 -100.5t52 -30.5q33 0 100 29h3 q8 0 12 -9.5t-2 -13.5l-254 -120q-4 -2 -10 -3q-18 0 -37 48.5t-19 126.5q-152 -170 -315 -170q-104 0 -164.5 66.5t-60.5 184.5v310q0 78 -14.5 111.5t-47.5 33.5q-29 0 -63 -16h-4q-6 0 -9.5 10zM473 975l94 491q2 8 50 19.5t79 11.5q23 0 20 -8l-221 -518q0 -4 -8 -4 q-6 0 -11 3t-3 5z" />
<glyph unicode="&#xfb;" horiz-adv-x="1017" d="M15.5 682q-3.5 10 2.5 12l242 113l8 2q8 0 16.5 -6t8.5 -15v-477q0 -231 172 -231q57 0 118.5 28.5t110.5 79.5v355q0 78 -14 111.5t-47 33.5q-27 0 -66 -16h-4q-6 0 -8 10t4 12l242 113l8 2q8 0 16.5 -6t8.5 -15v-563q0 -70 15 -100.5t52 -30.5q33 0 100 29h3 q8 0 12 -9.5t-2 -13.5l-254 -120q-4 -2 -10 -3q-18 0 -37 48.5t-19 126.5q-152 -170 -315 -170q-104 0 -164.5 66.5t-60.5 184.5v310q0 78 -14.5 111.5t-47.5 33.5q-29 0 -63 -16h-4q-6 0 -9.5 10zM338 975l139 510q2 10 23 10q23 0 24 -10l137 -510q4 -4 -7 -7t-13 3 l-139 301l-142 -301q0 -4 -8 -4q-6 0 -11 3t-3 5z" />
<glyph unicode="&#xfc;" horiz-adv-x="1017" d="M15.5 682q-3.5 10 2.5 12l242 113l8 2q8 0 16.5 -6t8.5 -15v-477q0 -231 172 -231q57 0 118.5 28.5t110.5 79.5v355q0 78 -14 111.5t-47 33.5q-27 0 -66 -16h-4q-6 0 -8 10t4 12l242 113l8 2q8 0 16.5 -6t8.5 -15v-563q0 -70 15 -100.5t52 -30.5q33 0 100 29h3 q8 0 12 -9.5t-2 -13.5l-254 -120q-4 -2 -10 -3q-18 0 -37 48.5t-19 126.5q-152 -170 -315 -170q-104 0 -164.5 66.5t-60.5 184.5v310q0 78 -14.5 111.5t-47.5 33.5q-29 0 -63 -16h-4q-6 0 -9.5 10zM227 1063q0 43 24.5 66.5t70.5 23.5q45 0 68.5 -23.5t23.5 -66.5 q0 -45 -23.5 -69.5t-68.5 -24.5q-46 0 -70.5 24.5t-24.5 69.5zM586 1063q0 43 24.5 66.5t69.5 23.5t68.5 -23.5t23.5 -66.5q0 -45 -23.5 -69.5t-68.5 -24.5t-69.5 24.5t-24.5 69.5z" />
<glyph unicode="&#xfd;" horiz-adv-x="884" d="M-74 -489q0 35 21.5 54t52.5 19q27 0 43 -7t39 -19t36 -18.5t36 -6.5q49 0 91 41t89 136t112 270l-317 641q-47 90 -71.5 117.5t-63.5 27.5q-4 0 -4 12.5t4 12.5l76 -3q27 -2 73 -2l133 2q31 2 84 3q4 0 4.5 -12.5t-4.5 -12.5q-55 0 -83.5 -10.5t-28.5 -34.5 q0 -16 10 -35l260 -534l152 434q16 53 16 82q0 51 -36 74.5t-111 23.5q-4 0 -4 12.5t4 12.5q55 0 84 -3l122 -2l78 2q20 2 66 3q6 0 6 -12.5t-6 -12.5q-57 0 -97 -42t-73 -134l-244 -647q-74 -197 -141.5 -309.5t-138 -160.5t-158.5 -48q-49 0 -80 22.5t-31 63.5zM432 975 l94 491q2 8 50 19.5t79 11.5q23 0 20 -8l-221 -518q0 -4 -8 -4q-6 0 -11 3t-3 5z" />
<glyph unicode="&#xfe;" horiz-adv-x="1009" d="M-16 1339.5q-4 10.5 2 12.5l272 131l8 2q8 0 15.5 -6t7.5 -15v-809q162 162 332 162q84 0 156.5 -45t116.5 -131t44 -201q0 -158 -68.5 -263t-171 -154.5t-204.5 -49.5q-59 0 -106.5 9.5t-98.5 31.5v-411q0 -61 15 -90t56 -40.5t127 -11.5q4 0 4.5 -12t-4.5 -12 q-74 0 -114 2l-154 2l-115 -2q-29 -2 -79 -2q-4 0 -4.5 12t4.5 12q53 0 79.5 11.5t36 40t9.5 90.5v1616q0 74 -13.5 105.5t-50.5 31.5q-35 0 -88 -27h-4q-6 0 -10 10.5zM289 141q51 -59 111.5 -91t146.5 -32q106 0 170.5 93.5t64.5 265.5q0 166 -74.5 258t-189.5 92 q-66 0 -119 -28.5t-110 -84.5v-473z" />
<glyph unicode="&#xff;" horiz-adv-x="884" d="M-74 -489q0 35 21.5 54t52.5 19q27 0 43 -7t39 -19t36 -18.5t36 -6.5q49 0 91 41t89 136t112 270l-317 641q-47 90 -71.5 117.5t-63.5 27.5q-4 0 -4 12.5t4 12.5l76 -3q27 -2 73 -2l133 2q31 2 84 3q4 0 4.5 -12.5t-4.5 -12.5q-55 0 -83.5 -10.5t-28.5 -34.5 q0 -16 10 -35l260 -534l152 434q16 53 16 82q0 51 -36 74.5t-111 23.5q-4 0 -4 12.5t4 12.5q55 0 84 -3l122 -2l78 2q20 2 66 3q6 0 6 -12.5t-6 -12.5q-57 0 -97 -42t-73 -134l-244 -647q-74 -197 -141.5 -309.5t-138 -160.5t-158.5 -48q-49 0 -80 22.5t-31 63.5zM186 1063 q0 43 24.5 66.5t70.5 23.5q45 0 68.5 -23.5t23.5 -66.5q0 -45 -23.5 -69.5t-68.5 -24.5q-46 0 -70.5 24.5t-24.5 69.5zM545 1063q0 43 24.5 66.5t69.5 23.5t68.5 -23.5t23.5 -66.5q0 -45 -23.5 -69.5t-68.5 -24.5t-69.5 24.5t-24.5 69.5z" />
<glyph unicode="&#x152;" horiz-adv-x="1884" d="M100 616q0 199 96.5 350.5t259 234.5t355.5 83q92 0 143 -2l160 -2h586q18 0 18 -18l4 -258q0 -6 -11 -7.5t-11 4.5q-10 90 -79 161t-165 71h-117q-88 0 -117.5 -24.5t-29.5 -96.5v-422h223q104 0 153.5 36t49.5 112q0 4 12 4t12 -4l-2 -109q-2 -20 -2 -63l2 -93 q4 -66 5 -102q0 -4 -12.5 -4t-12.5 4q0 88 -50 130t-161 42h-217v-469q0 -74 27.5 -100.5t109.5 -26.5h146q96 0 179 76t107 186q2 6 13.5 5t11.5 -7q-20 -147 -21 -276q0 -16 -6 -23.5t-24 -7.5h-623q-43 0 -141 -4q-94 -4 -144 -4q-211 0 -376.5 82t-258 224t-92.5 318z M287 662q0 -178 65.5 -322.5t186 -228.5t280.5 -84q84 0 128 10t62.5 39.5t18.5 91.5v932q0 59 -15.5 90t-57.5 45t-124 14q-160 0 -282.5 -68.5t-192 -201.5t-69.5 -317z" />
<glyph unicode="&#x153;" horiz-adv-x="1404" d="M47 406q0 133 64.5 226t162 139t199.5 46t179 -47t122 -131q59 78 148.5 124t193.5 46q109 0 169.5 -54.5t60.5 -148.5q0 -27 -5.5 -39t-19.5 -12h-123l-360 -4q-12 -57 -13 -127q0 -170 84 -269.5t226 -99.5q121 0 200 66h2q6 0 12.5 -7.5t0.5 -13.5 q-133 -125 -293 -125q-111 0 -192 40t-128 114q-53 -74 -131 -115t-170 -41q-113 0 -202 59.5t-138 158t-49 215.5zM207 465q0 -123 37 -227.5t102.5 -166t145.5 -61.5q83 0 133.5 88t50.5 250q0 195 -74 312.5t-194 117.5q-94 0 -147.5 -81t-53.5 -232zM846 584l332 8 q0 84 -36 130t-95 46q-76 0 -126.5 -49t-74.5 -135z" />
<glyph unicode="&#x178;" horiz-adv-x="1253" d="M-4 1267.5q0 12.5 6 12.5q23 0 72 -4l67 -2q68 0 187 4l118 2q4 0 4.5 -12.5t-4.5 -12.5q-96 0 -96 -49q0 -23 23 -57l315 -471l230 362q49 80 49 131q0 41 -29 62.5t-84 21.5q-6 0 -6 12.5t6 12.5l100 -2q82 -4 150 -4q35 0 84 4l76 2q4 0 4 -12.5t-4 -12.5 q-70 0 -151 -62.5t-144 -164.5l-254 -399v-463q0 -63 11 -92t45 -39t108 -10q6 0 6 -12.5t-6 -12.5q-63 0 -101 2l-147 2l-144 -2q-37 -2 -104 -2q-6 0 -6 12.5t6 12.5q74 0 108.5 10t47 39.5t12.5 91.5v428l-326 485q-66 98 -116 137t-107 39q-6 0 -6 12.5zM383 1552 q0 43 24.5 66.5t70.5 23.5q45 0 68.5 -23.5t23.5 -66.5q0 -45 -23.5 -69.5t-68.5 -24.5q-46 0 -70.5 24.5t-24.5 69.5zM742 1552q0 43 24.5 66.5t69.5 23.5t68.5 -23.5t23.5 -66.5q0 -45 -23.5 -69.5t-68.5 -24.5t-69.5 24.5t-24.5 69.5z" />
<glyph unicode="&#x2c6;" horiz-adv-x="536" d="M119 975l139 510q2 10 23 10q23 0 24 -10l137 -510q4 -4 -7 -7t-13 3l-139 301l-142 -301q0 -4 -8 -4q-6 0 -11 3t-3 5z" />
<glyph unicode="&#x2dc;" horiz-adv-x="786" d="M123 982q-4 5 0 9q92 137 174 137q29 0 102 -20q94 -29 152 -29q35 0 56.5 13.5t45.5 42.5h2q6 0 11.5 -5.5t1.5 -9.5q-53 -82 -88 -110.5t-76 -28.5t-123 25q-8 2 -52 14t-89 12q-33 0 -51.5 -10t-32 -24.5t-19.5 -20.5h-4q-6 0 -10 5z" />
<glyph unicode="&#x2000;" horiz-adv-x="838" />
<glyph unicode="&#x2001;" horiz-adv-x="1677" />
<glyph unicode="&#x2002;" horiz-adv-x="838" />
<glyph unicode="&#x2003;" horiz-adv-x="1677" />
<glyph unicode="&#x2004;" horiz-adv-x="559" />
<glyph unicode="&#x2005;" horiz-adv-x="419" />
<glyph unicode="&#x2006;" horiz-adv-x="279" />
<glyph unicode="&#x2007;" horiz-adv-x="279" />
<glyph unicode="&#x2008;" horiz-adv-x="209" />
<glyph unicode="&#x2009;" horiz-adv-x="335" />
<glyph unicode="&#x200a;" horiz-adv-x="93" />
<glyph unicode="&#x2010;" horiz-adv-x="661" d="M55 383q0 41 6 41l535 96q4 2 7 -12t3 -33q0 -16 -3 -30.5t-7 -16.5l-530 -96q-5 -2 -8 15.5t-3 35.5z" />
<glyph unicode="&#x2011;" horiz-adv-x="661" d="M55 383q0 41 6 41l535 96q4 2 7 -12t3 -33q0 -16 -3 -30.5t-7 -16.5l-530 -96q-5 -2 -8 15.5t-3 35.5z" />
<glyph unicode="&#x2012;" horiz-adv-x="661" d="M55 383q0 41 6 41l535 96q4 2 7 -12t3 -33q0 -16 -3 -30.5t-7 -16.5l-530 -96q-5 -2 -8 15.5t-3 35.5z" />
<glyph unicode="&#x2013;" horiz-adv-x="1054" d="M59 391q0 14 3.5 27.5t5.5 13.5h917q4 0 7 -13t3 -30q0 -16 -3 -30.5t-7 -14.5h-915q-4 0 -7.5 15.5t-3.5 31.5z" />
<glyph unicode="&#x2014;" horiz-adv-x="1699" d="M59 391q0 14 3.5 27.5t5.5 13.5h1562q4 0 7 -13t3 -30q0 -16 -3 -30.5t-7 -14.5h-1560q-4 0 -7.5 15.5t-3.5 31.5z" />
<glyph unicode="&#x2018;" horiz-adv-x="350" d="M41 1014q0 86 38 158.5t114 146.5q2 2 6 2q6 0 10 -6t0 -10q-100 -102 -100 -242q0 -57 20 -84q18 31 68 31q41 0 64.5 -26t23.5 -66q0 -45 -28 -69t-79 -24q-63 0 -100 49.5t-37 139.5z" />
<glyph unicode="&#x2019;" horiz-adv-x="325" d="M41 1198q0 45 27.5 68.5t78.5 23.5q64 0 101 -49t37 -139q0 -86 -38 -159t-114 -146q-2 -2 -6 -2q-6 0 -10 6t0 10q100 102 100 242q0 57 -20 84q-18 -31 -68 -31q-41 0 -64.5 25.5t-23.5 66.5z" />
<glyph unicode="&#x201a;" horiz-adv-x="325" d="M41 76q0 45 28 68.5t79 23.5q63 0 100 -49t37 -139q0 -86 -38 -159t-113 -147q-2 -2 -7 -2q-6 0 -10 6.5t0 10.5q100 102 101 241q0 57 -21 84q-18 -31 -68 -30q-41 0 -64.5 25.5t-23.5 66.5z" />
<glyph unicode="&#x201c;" horiz-adv-x="645" d="M41 1014q0 86 38 158.5t114 146.5q2 2 6 2q6 0 10 -6t0 -10q-100 -102 -100 -242q0 -57 20 -84q18 31 68 31q41 0 64.5 -26t23.5 -66q0 -45 -28 -69t-79 -24q-63 0 -100 49.5t-37 139.5zM360 1014q0 86 38 158.5t114 146.5q2 2 6 2q6 0 10 -6t0 -10q-100 -102 -100 -242 q0 -57 21 -84q18 31 67 31q41 0 64.5 -26t23.5 -66q0 -45 -27.5 -69t-78.5 -24q-63 0 -100.5 49.5t-37.5 139.5z" />
<glyph unicode="&#x201d;" horiz-adv-x="645" d="M41 1198q0 45 28 68.5t79 23.5q63 0 100 -49t37 -139q0 -86 -38 -159t-113 -147q-2 -2 -7 -2q-6 0 -10 6.5t0 10.5q100 102 101 241q0 57 -21 84q-18 -31 -68 -30q-41 0 -64.5 25.5t-23.5 66.5zM360 1198q0 45 28 68.5t79 23.5q63 0 100 -49t37 -139q0 -86 -38 -159 t-113 -147q-2 -2 -7 -2q-6 0 -10 6.5t0 10.5q100 102 101 241q0 57 -21 84q-18 -31 -68 -30q-41 0 -64.5 25.5t-23.5 66.5z" />
<glyph unicode="&#x201e;" horiz-adv-x="657" d="M41 76q0 45 28 68.5t79 23.5q63 0 100 -49t37 -139q0 -86 -38 -159t-113 -147q-2 -2 -7 -2q-6 0 -10 6.5t0 10.5q100 102 101 241q0 57 -21 84q-18 -31 -68 -30q-41 0 -64.5 25.5t-23.5 66.5zM360 76q0 45 28 68.5t79 23.5q63 0 100 -49t37 -139q0 -86 -38 -159 t-113 -147q-2 -2 -7 -2q-6 0 -10 6.5t0 10.5q100 102 101 241q0 57 -21 84q-18 -31 -68 -30q-41 0 -64.5 25.5t-23.5 66.5z" />
<glyph unicode="&#x2022;" horiz-adv-x="638" d="M106 508q0 86 62.5 148.5t150.5 62.5t149.5 -62.5t61.5 -148.5q0 -88 -61 -149.5t-150 -61.5q-88 0 -150.5 61.5t-62.5 149.5z" />
<glyph unicode="&#x2026;" horiz-adv-x="1368" d="M106 78q0 45 27 70.5t74 25.5t72.5 -25.5t25.5 -70.5q0 -47 -25.5 -74t-72.5 -27q-45 0 -73 28t-28 73zM585 78q0 45 27 70.5t74 25.5t72.5 -25.5t25.5 -70.5q0 -47 -25.5 -74t-72.5 -27q-45 0 -73 28t-28 73zM1064 78q0 45 27 70.5t74 25.5t72.5 -25.5t25.5 -70.5 q0 -47 -25.5 -74t-72.5 -27q-45 0 -73 28t-28 73z" />
<glyph unicode="&#x202f;" horiz-adv-x="335" />
<glyph unicode="&#x2039;" horiz-adv-x="622" d="M109 412q0 14 8 22l370 305q0 2 5 2q4 0 8 -5t2 -7l-232 -317l232 -318q2 -4 -5.5 -11t-9.5 -1l-370 305q-8 8 -8 25z" />
<glyph unicode="&#x203a;" horiz-adv-x="622" d="M121 94l231 316l-231 319q-2 4 5 10t9 0l371 -305q10 -10 10 -22q0 -14 -10 -25l-371 -305q0 -2 -4 -2t-8 5t-2 9z" />
<glyph unicode="&#x205f;" horiz-adv-x="419" />
<glyph unicode="&#x20ac;" horiz-adv-x="1202" d="M86 539q0 25 14 24h93q20 121 98 216t199.5 149.5t269.5 54.5q90 0 169 -16.5t132 -51.5q12 -6 22.5 -14t10.5 -18l-4 -17l-80 -182q0 -2 -4 -2q-6 0 -12.5 3t-4.5 9q4 25 4 39q0 92 -83 154.5t-195 62.5q-94 0 -172 -49t-127 -138t-58 -200h600q8 0 9 -10 q0 -12 -9.5 -25.5t-19.5 -13.5h-838q-14 0 -14 25zM88 389q0 10 4 17.5t10 7.5h801q8 0 8 -11q0 -12 -9 -25t-17 -13h-514q35 -156 131 -257.5t243 -101.5q119 0 207 63.5t135 194.5q1 4 9 4q6 0 11 -2t5 -6l-29 -192q-4 -16 -8 -22.5t-20 -14.5q-160 -55 -330 -56 q-229 0 -359 113t-167 277h-97q-6 0 -10 7t-4 17z" />
<glyph unicode="&#x2122;" horiz-adv-x="1486" d="M59 1124q4 23 8.5 80.5t4.5 100.5q0 6 12 7t12 -7q0 -14 14.5 -18.5t41.5 -4.5l184 -2l164 2q41 0 59.5 5t22.5 24q2 4 13 4t11 -4q-8 -172 -8 -187q0 -4 -11.5 -4t-11.5 4q0 68 -27.5 99.5t-82.5 31.5q-43 0 -56.5 -14t-13.5 -59v-379q0 -45 17.5 -59.5t76.5 -14.5 q4 0 4.5 -12t-4.5 -12l-153 2l-150 -2q-2 0 -2 12t2 12q57 0 76 14.5t19 59.5v381q0 45 -12.5 58t-57.5 13q-59 0 -89 -30.5t-38 -100.5q0 -4 -12.5 -4t-12.5 4zM633 717q0 12 2 12q45 0 67.5 24.5t24.5 77.5l12 373q-39 51 -92 51q-4 0 -4 12.5t4 12.5q18 0 38 -2t32 -2 q23 0 42 2t27 2q18 0 31.5 -12.5t34.5 -50.5l190 -377l179 407q4 14 15 23.5t24 9.5q6 0 21 -2t42 -2q31 0 52.5 2t39.5 2q4 0 4 -12.5t-4 -12.5q-49 0 -70.5 -16t-19.5 -68l12 -368q2 -45 17.5 -59.5t66.5 -14.5q4 0 4 -12t-4 -12l-137 2l-141 -2q-2 0 -2 12t2 12 q59 0 77.5 14.5t14.5 59.5l-12 360l-197 -448q-4 -6 -15.5 -6t-15.5 6l-219 424l-10 -308q-2 -53 13.5 -77.5t54.5 -24.5q4 0 4 -12t-4 -12l-95 2l-104 -2q-2 0 -2 12z" />
<glyph unicode="&#x25fc;" horiz-adv-x="788" d="M0 0v788h788v-788h-788z" />
</font>
</defs>
</svg>
